999
dxflib 3.7.5.0
  0
SECTION
  2
HEADER
  9
$ACADVER
  1
AC1015
  9
$HANDSEED
  5
FFFF
  9
$DIMADEC
 70
2
  9
$DIMASZ
 40
1.0
  9
$DIMAUNIT
 70
0
  9
$DIMAZIN
 70
2
  9
$DIMDEC
 70
4
  9
$DIMEXE
 40
0.5
  9
$DIMEXO
 40
0.25
  9
$DIMGAP
 40
0.25
  9
$DIMLUNIT
 70
2
  9
$DIMSCALE
 40
1.0
  9
$DIMTSZ
 40
0.0
  9
$DIMTXT
 40
1.0
  9
$DIMZIN
 70
8
  9
$DWGCODEPAGE
  3
ANSI_1252
  9
$INSUNITS
 70
4
  9
$LTSCALE
 40
1
  0
ENDSEC
  0
SECTION
  2
TABLES
  0
TABLE
  2
VPORT
  5
8
100
AcDbSymbolTable
 70
1
  0
VPORT
  5
30
100
AcDbSymbolTableRecord
100
AcDbViewportTableRecord
  2
*Active
 70
0
 10
0.0
 20
0.0
 11
1.0
 21
1.0
 12
286.3055555555554861
 22
148.5
 13
0.0
 23
0.0
 14
10.0
 24
10.0
 15
10.0
 25
10.0
 16
0.0
 26
0.0
 36
1.0
 17
0.0
 27
0.0
 37
0.0
 40
297.0
 41
1.92798353909465
 42
50.0
 43
0.0
 44
0.0
 50
0.0
 51
0.0
 71
0
 72
100
 73
1
 74
3
 75
1
 76
1
 77
0
 78
0
281
0
 65
1
110
0.0
120
0.0
130
0.0
111
1.0
121
0.0
131
0.0
112
0.0
122
1.0
132
0.0
 79
0
146
0.0
  0
ENDTAB
  0
TABLE
  2
LTYPE
  5
5
100
AcDbSymbolTable
 70
41
  0
LTYPE
  5
16
100
AcDbSymbolTableRecord
100
AcDbLinetypeTableRecord
  2
Continuous
 70
0
  3
Solid line
 72
65
 73
0
 40
0.0
  0
LTYPE
  5
31
100
AcDbSymbolTableRecord
100
AcDbLinetypeTableRecord
  2
ACAD_ISO15W100
 70
0
  3
ISO double-dash triple-dot __ __ . . . __ __ . .
 72
65
 73
10
 40
39.0000000000000071
 49
12.0
 74
0
 49
-3.0
 74
0
 49
12.0
 74
0
 49
-2.9500000000000002
 74
0
 49
0.1
 74
0
 49
-2.9000000000000004
 74
0
 49
0.1
 74
0
 49
-2.9000000000000004
 74
0
 49
0.1
 74
0
 49
-2.9500000000000002
 74
0
  0
LTYPE
  5
32
100
AcDbSymbolTableRecord
100
AcDbLinetypeTableRecord
  2
DIVIDE
 70
0
  3
Divide ____ . . ____ . . ____ . . ____ . . ____
 72
65
 73
6
 40
31.7500000000000036
 49
12.6999999999999993
 74
0
 49
-6.2999999999999998
 74
0
 49
0.1
 74
0
 49
-6.25
 74
0
 49
0.1
 74
0
 49
-6.2999999999999998
 74
0
  0
LTYPE
  5
33
100
AcDbSymbolTableRecord
100
AcDbLinetypeTableRecord
  2
ACAD_ISO10W100
 70
0
  3
ISO dash dot __ . __ . __ . __ . __ . __ . __ . 
 72
65
 73
4
 40
18.0
 49
12.0
 74
0
 49
-2.9500000000000002
 74
0
 49
0.1
 74
0
 49
-2.9500000000000002
 74
0
  0
LTYPE
  5
34
100
AcDbSymbolTableRecord
100
AcDbLinetypeTableRecord
  2
ACAD_ISO04W100
 70
0
  3
ISO long-dash dot ____ . ____ . ____ . ____ . _
 72
65
 73
4
 40
30.0
 49
24.0
 74
0
 49
-2.9500000000000002
 74
0
 49
0.1
 74
0
 49
-2.9500000000000002
 74
0
  0
LTYPE
  5
35
100
AcDbSymbolTableRecord
100
AcDbLinetypeTableRecord
  2
CENTER2
 70
0
  3
Center (.5x) ___ _ ___ _ ___ _ ___ _ ___ _ ___
 72
65
 73
4
 40
28.5750000000000028
 49
19.0500000000000007
 74
0
 49
-3.1749999999999998
 74
0
 49
3.1749999999999998
 74
0
 49
-3.1749999999999998
 74
0
  0
LTYPE
  5
36
100
AcDbSymbolTableRecord
100
AcDbLinetypeTableRecord
  2
ACAD_ISO11W100
 70
0
  3
ISO double-dash dot __ __ . __ __ . __ __ . __ _
 72
65
 73
6
 40
33.0
 49
12.0
 74
0
 49
-3.0
 74
0
 49
12.0
 74
0
 49
-2.9500000000000002
 74
0
 49
0.1
 74
0
 49
-2.9500000000000002
 74
0
  0
LTYPE
  5
37
100
AcDbSymbolTableRecord
100
AcDbLinetypeTableRecord
  2
HIDDEN2
 70
0
  3
Hidden (.5x) _ _ _ _ _ _ _ _ _ _ _ _ _ _ _ _ _ 
 72
65
 73
2
 40
4.7624999999999993
 49
3.1749999999999998
 74
0
 49
-1.5874999999999999
 74
0
  0
LTYPE
  5
38
100
AcDbSymbolTableRecord
100
AcDbLinetypeTableRecord
  2
BORDERX2
 70
0
  3
Border (2x) ____  ____  .  ____  ____  .  ___
 72
65
 73
6
 40
88.8999999999999773
 49
25.3999999999999986
 74
0
 49
-12.6999999999999993
 74
0
 49
25.3999999999999986
 74
0
 49
-12.6499999999999986
 74
0
 49
0.1
 74
0
 49
-12.6499999999999986
 74
0
  0
LTYPE
  5
39
100
AcDbSymbolTableRecord
100
AcDbLinetypeTableRecord
  2
ACAD_ISO05W100
 70
0
  3
ISO long-dash double-dot ____ .. ____ .. ____ . 
 72
65
 73
6
 40
33.0000000000000071
 49
24.0
 74
0
 49
-2.9500000000000002
 74
0
 49
0.1
 74
0
 49
-2.9000000000000004
 74
0
 49
0.1
 74
0
 49
-2.9500000000000002
 74
0
  0
LTYPE
  5
3A
100
AcDbSymbolTableRecord
100
AcDbLinetypeTableRecord
  2
DASHDOTX2
 70
0
  3
Dash dot (2x) ____  .  ____  .  ____  .  ___
 72
65
 73
4
 40
50.7999999999999972
 49
25.3999999999999986
 74
0
 49
-12.6499999999999986
 74
0
 49
0.1
 74
0
 49
-12.6499999999999986
 74
0
  0
LTYPE
  5
3B
100
AcDbSymbolTableRecord
100
AcDbLinetypeTableRecord
  2
HIDDENX2
 70
0
  3
Hidden (2x) ____ ____ ____ ____ ____ ____ ____ 
 72
65
 73
2
 40
19.0499999999999972
 49
12.6999999999999993
 74
0
 49
-6.3499999999999996
 74
0
  0
LTYPE
  5
3C
100
AcDbSymbolTableRecord
100
AcDbLinetypeTableRecord
  2
CENTERX2
 70
0
  3
Center (2x) ________  __  ________  __  _____
 72
65
 73
4
 40
101.6000000000000085
 49
63.5
 74
0
 49
-12.6999999999999993
 74
0
 49
12.6999999999999993
 74
0
 49
-12.6999999999999993
 74
0
  0
LTYPE
  5
3D
100
AcDbSymbolTableRecord
100
AcDbLinetypeTableRecord
  2
BORDER2
 70
0
  3
Border (.5x) __.__.__.__.__.__.__.__.__.__.__.
 72
65
 73
6
 40
22.2250000000000014
 49
6.3499999999999996
 74
0
 49
-3.1749999999999998
 74
0
 49
6.3499999999999996
 74
0
 49
-3.125
 74
0
 49
0.1
 74
0
 49
-3.125
 74
0
  0
LTYPE
  5
3E
100
AcDbSymbolTableRecord
100
AcDbLinetypeTableRecord
  2
DASHDOT2
 70
0
  3
Dash dot (.5x) _._._._._._._._._._._._._._._.
 72
65
 73
4
 40
12.6999999999999993
 49
6.3499999999999996
 74
0
 49
-3.125
 74
0
 49
0.1
 74
0
 49
-3.125
 74
0
  0
LTYPE
  5
3F
100
AcDbSymbolTableRecord
100
AcDbLinetypeTableRecord
  2
ACAD_ISO12W100
 70
0
  3
ISO dash double-dot __ . . __ . . __ . . __ . . 
 72
65
 73
6
 40
21.0
 49
12.0
 74
0
 49
-2.9500000000000002
 74
0
 49
0.1
 74
0
 49
-2.9000000000000004
 74
0
 49
0.1
 74
0
 49
-2.9500000000000002
 74
0
  0
LTYPE
  5
40
100
AcDbSymbolTableRecord
100
AcDbLinetypeTableRecord
  2
ACAD_ISO07W100
 70
0
  3
ISO dot . . . . . . . . . . . . . . . . . . . . 
 72
65
 73
2
 40
3.0
 49
0.1
 74
0
 49
-2.8999999999999999
 74
0
  0
LTYPE
  5
41
100
AcDbSymbolTableRecord
100
AcDbLinetypeTableRecord
  2
HIDDEN
 70
0
  3
Hidden __ __ __ __ __ __ __ __ __ __ __ __ __ __
 72
65
 73
2
 40
9.5249999999999986
 49
6.3499999999999996
 74
0
 49
-3.1749999999999998
 74
0
  0
LTYPE
  5
42
100
AcDbSymbolTableRecord
100
AcDbLinetypeTableRecord
  2
ACAD_ISO06W100
 70
0
  3
ISO long-dash triple-dot ____ ... ____ ... ____
 72
65
 73
8
 40
36.0000000000000071
 49
24.0
 74
0
 49
-2.9500000000000002
 74
0
 49
0.1
 74
0
 49
-2.9000000000000004
 74
0
 49
0.1
 74
0
 49
-2.9000000000000004
 74
0
 49
0.1
 74
0
 49
-2.9500000000000002
 74
0
  0
LTYPE
  5
43
100
AcDbSymbolTableRecord
100
AcDbLinetypeTableRecord
  2
CENTER
 70
0
  3
Center ____ _ ____ _ ____ _ ____ _ ____ _ ____
 72
65
 73
4
 40
50.8000000000000043
 49
31.75
 74
0
 49
-6.3499999999999996
 74
0
 49
6.3499999999999996
 74
0
 49
-6.3499999999999996
 74
0
  0
LTYPE
  5
44
100
AcDbSymbolTableRecord
100
AcDbLinetypeTableRecord
  2
DOTX2
 70
0
  3
Dot (2x) .  .  .  .  .  .  .  .  .  .  .  .  .  .
 72
65
 73
2
 40
12.6999999999999993
 49
0.1
 74
0
 49
-12.5999999999999996
 74
0
  0
LTYPE
  5
45
100
AcDbSymbolTableRecord
100
AcDbLinetypeTableRecord
  2
PHANTOM
 70
0
  3
Phantom ______  __  __  ______  __  __  ______ 
 72
65
 73
6
 40
63.5000000000000071
 49
31.75
 74
0
 49
-6.3499999999999996
 74
0
 49
6.3499999999999996
 74
0
 49
-6.3499999999999996
 74
0
 49
6.3499999999999996
 74
0
 49
-6.3499999999999996
 74
0
  0
LTYPE
  5
46
100
AcDbSymbolTableRecord
100
AcDbLinetypeTableRecord
  2
ACAD_ISO08W100
 70
0
  3
ISO long-dash short-dash ____ __ ____ __ ____ _
 72
65
 73
4
 40
36.0
 49
24.0
 74
0
 49
-3.0
 74
0
 49
6.0
 74
0
 49
-3.0
 74
0
  0
LTYPE
  5
47
100
AcDbSymbolTableRecord
100
AcDbLinetypeTableRecord
  2
DASHEDX2
 70
0
  3
Dashed (2x) ____  ____  ____  ____  ____  ___
 72
65
 73
2
 40
38.0999999999999943
 49
25.3999999999999986
 74
0
 49
-12.6999999999999993
 74
0
  0
LTYPE
  5
48
100
AcDbSymbolTableRecord
100
AcDbLinetypeTableRecord
  2
ACAD_ISO02W100
 70
0
  3
ISO dash __ __ __ __ __ __ __ __ __ __ __ __ __
 72
65
 73
2
 40
15.0
 49
12.0
 74
0
 49
-3.0
 74
0
  0
LTYPE
  5
49
100
AcDbSymbolTableRecord
100
AcDbLinetypeTableRecord
  2
PHANTOM2
 70
0
  3
Phantom (.5x) ___ _ _ ___ _ _ ___ _ _ ___ _ _
 72
65
 73
6
 40
31.7500000000000036
 49
15.875
 74
0
 49
-3.1749999999999998
 74
0
 49
3.1749999999999998
 74
0
 49
-3.1749999999999998
 74
0
 49
3.1749999999999998
 74
0
 49
-3.1749999999999998
 74
0
  0
LTYPE
  5
4A
100
AcDbSymbolTableRecord
100
AcDbLinetypeTableRecord
  2
DASHED2
 70
0
  3
Dashed (.5x) _ _ _ _ _ _ _ _ _ _ _ _ _ _ _ _ _ 
 72
65
 73
2
 40
9.5249999999999986
 49
6.3499999999999996
 74
0
 49
-3.1749999999999998
 74
0
  0
LTYPE
  5
4B
100
AcDbSymbolTableRecord
100
AcDbLinetypeTableRecord
  2
ACAD_ISO09W100
 70
0
  3
ISO long-dash double-short-dash ____ __ __ ____
 72
65
 73
6
 40
45.0
 49
24.0
 74
0
 49
-3.0
 74
0
 49
6.0
 74
0
 49
-3.0
 74
0
 49
6.0
 74
0
 49
-3.0
 74
0
  0
LTYPE
  5
4C
100
AcDbSymbolTableRecord
100
AcDbLinetypeTableRecord
  2
ACAD_ISO13W100
 70
0
  3
ISO double-dash double-dot __ __ . . __ __ . . _
 72
65
 73
8
 40
36.0000000000000071
 49
12.0
 74
0
 49
-3.0
 74
0
 49
12.0
 74
0
 49
-2.9500000000000002
 74
0
 49
0.1
 74
0
 49
-2.9000000000000004
 74
0
 49
0.1
 74
0
 49
-2.9500000000000002
 74
0
  0
LTYPE
  5
4D
100
AcDbSymbolTableRecord
100
AcDbLinetypeTableRecord
  2
DOT2
 70
0
  3
Dot (.5x) ........................................
 72
65
 73
2
 40
3.1749999999999998
 49
0.1
 74
0
 49
-3.0749999999999997
 74
0
  0
LTYPE
  5
4E
100
AcDbSymbolTableRecord
100
AcDbLinetypeTableRecord
  2
DASHED
 70
0
  3
Dashed __ __ __ __ __ __ __ __ __ __ __ __ __ _
 72
65
 73
2
 40
19.0499999999999972
 49
12.6999999999999993
 74
0
 49
-6.3499999999999996
 74
0
  0
LTYPE
  5
4F
100
AcDbSymbolTableRecord
100
AcDbLinetypeTableRecord
  2
ACAD_ISO14W100
 70
0
  3
ISO dash triple-dot __ . . . __ . . . __ . . . _
 72
65
 73
8
 40
24.0000000000000036
 49
12.0
 74
0
 49
-2.9500000000000002
 74
0
 49
0.1
 74
0
 49
-2.9000000000000004
 74
0
 49
0.1
 74
0
 49
-2.9000000000000004
 74
0
 49
0.1
 74
0
 49
-2.9500000000000002
 74
0
  0
LTYPE
  5
15
100
AcDbSymbolTableRecord
100
AcDbLinetypeTableRecord
  2
BYLAYER
 70
0
  3

 72
65
 73
0
 40
0.0
  0
LTYPE
  5
50
100
AcDbSymbolTableRecord
100
AcDbLinetypeTableRecord
  2
PHANTOMX2
 70
0
  3
Phantom (2x) ____________    ____    ____   _
 72
65
 73
6
 40
127.0000000000000142
 49
63.5
 74
0
 49
-12.6999999999999993
 74
0
 49
12.6999999999999993
 74
0
 49
-12.6999999999999993
 74
0
 49
12.6999999999999993
 74
0
 49
-12.6999999999999993
 74
0
  0
LTYPE
  5
14
100
AcDbSymbolTableRecord
100
AcDbLinetypeTableRecord
  2
BYBLOCK
 70
0
  3

 72
65
 73
0
 40
0.0
  0
LTYPE
  5
51
100
AcDbSymbolTableRecord
100
AcDbLinetypeTableRecord
  2
DIVIDEX2
 70
0
  3
Divide (2x) ________  .  .  ________  .  .  _
 72
65
 73
6
 40
63.5
 49
25.3999999999999986
 74
0
 49
-12.6499999999999986
 74
0
 49
0.1
 74
0
 49
-12.5999999999999979
 74
0
 49
0.1
 74
0
 49
-12.6499999999999986
 74
0
  0
LTYPE
  5
52
100
AcDbSymbolTableRecord
100
AcDbLinetypeTableRecord
  2
BORDER
 70
0
  3
Border __ __ . __ __ . __ __ . __ __ . __ __ .
 72
65
 73
6
 40
44.4499999999999957
 49
12.6999999999999993
 74
0
 49
-6.3499999999999996
 74
0
 49
12.6999999999999993
 74
0
 49
-6.2999999999999998
 74
0
 49
0.1
 74
0
 49
-6.2999999999999998
 74
0
  0
LTYPE
  5
53
100
AcDbSymbolTableRecord
100
AcDbLinetypeTableRecord
  2
DIVIDE2
 70
0
  3
Divide (.5x) __..__..__..__..__..__..__..__.._
 72
65
 73
6
 40
15.8749999999999982
 49
6.3499999999999996
 74
0
 49
-3.125
 74
0
 49
0.1
 74
0
 49
-3.0750000000000002
 74
0
 49
0.1
 74
0
 49
-3.125
 74
0
  0
LTYPE
  5
54
100
AcDbSymbolTableRecord
100
AcDbLinetypeTableRecord
  2
DOT
 70
0
  3
Dot . . . . . . . . . . . . . . . . . . . . . . . .
 72
65
 73
2
 40
6.3499999999999996
 49
0.1
 74
0
 49
-6.25
 74
0
  0
LTYPE
  5
55
100
AcDbSymbolTableRecord
100
AcDbLinetypeTableRecord
  2
DASHDOT
 70
0
  3
Dash dot __ . __ . __ . __ . __ . __ . __ . __
 72
65
 73
4
 40
25.4000000000000021
 49
12.6999999999999993
 74
0
 49
-6.2999999999999998
 74
0
 49
0.1
 74
0
 49
-6.2999999999999998
 74
0
  0
LTYPE
  5
56
100
AcDbSymbolTableRecord
100
AcDbLinetypeTableRecord
  2
ACAD_ISO03W100
 70
0
  3
ISO dash space __    __    __    __    __    __
 72
65
 73
2
 40
30.0
 49
12.0
 74
0
 49
-18.0
 74
0
  0
ENDTAB
  0
TABLE
  2
LAYER
  5
2
100
AcDbSymbolTable
 70
5
  0
LAYER
  5
57
100
AcDbSymbolTableRecord
100
AcDbLayerTableRecord
  2
Mode0
 70
5
 62
-2
420
16776960
  6
Continuous
370
25
390
F
  0
LAYER
  5
10
100
AcDbSymbolTableRecord
100
AcDbLayerTableRecord
  2
0
 70
4
 62
2
420
16776960
  6
Continuous
370
25
390
F
  0
LAYER
  5
58
100
AcDbSymbolTableRecord
100
AcDbLayerTableRecord
  2
Mode1
 70
5
 62
-30
420
16744192
  6
Continuous
370
25
390
F
  0
LAYER
  5
59
100
AcDbSymbolTableRecord
100
AcDbLayerTableRecord
  2
Mode2
 70
5
 62
-7
420
0
  6
Continuous
370
25
390
F
  0
LAYER
  5
5A
100
AcDbSymbolTableRecord
100
AcDbLayerTableRecord
  2
Mode3
 70
0
 62
5
420
255
  6
Continuous
370
25
390
F
  0
ENDTAB
  0
TABLE
  2
STYLE
  5
3
100
AcDbSymbolTable
 70
1
  0
STYLE
  5
5B
100
AcDbSymbolTableRecord
100
AcDbTextStyleTableRecord
  2
Standard
 70
0
 40
0.0
 41
1.0
 50
0.0
 71
0
 42
2.5
  3

  4

1001
ACAD
1000
txt
1071
0
  0
ENDTAB
  0
TABLE
  2
VIEW
  5
6
100
AcDbSymbolTable
 70
0
  0
ENDTAB
  0
TABLE
  2
UCS
  5
7
100
AcDbSymbolTable
 70
0
  0
ENDTAB
  0
TABLE
  2
APPID
  5
9
100
AcDbSymbolTable
 70
1
  0
APPID
  5
12
100
AcDbSymbolTableRecord
100
AcDbRegAppTableRecord
  2
ACAD
 70
0
  0
APPID
  5
5C
100
AcDbSymbolTableRecord
100
AcDbRegAppTableRecord
  2
QCAD
 70
0
  0
ENDTAB
  0
TABLE
  2
DIMSTYLE
  5
A
100
AcDbSymbolTable
 70
1
100
AcDbDimStyleTable
 71
0
  0
DIMSTYLE
105
27
100
AcDbSymbolTableRecord
100
AcDbDimStyleTableRecord
  2
Standard
 41
1.0
 42
0.25
 43
3.75
 44
0.5
 70
0
 73
0
 74
0
 77
1
 78
8
140
1.0
141
2.5
143
0.03937007874016
147
0.25
171
3
172
1
271
2
272
2
274
3
278
44
283
0
284
8
340
5B
  0
ENDTAB
  0
TABLE
  2
BLOCK_RECORD
  5
1
100
AcDbSymbolTable
 70
1
  0
BLOCK_RECORD
  5
1F
100
AcDbSymbolTableRecord
100
AcDbBlockTableRecord
  2
*Model_Space
340
22
  0
BLOCK_RECORD
  5
1B
100
AcDbSymbolTableRecord
100
AcDbBlockTableRecord
  2
*Paper_Space
340
1E
  0
BLOCK_RECORD
  5
23
100
AcDbSymbolTableRecord
100
AcDbBlockTableRecord
  2
*Paper_Space0
340
26
  0
ENDTAB
  0
ENDSEC
  0
SECTION
  2
BLOCKS
  0
BLOCK
  5
20
100
AcDbEntity
  8
0
100
AcDbBlockBegin
  2
*Model_Space
 70
0
 10
0.0
 20
0.0
 30
0.0
  3
*Model_Space
  1

  0
ENDBLK
  5
21
100
AcDbEntity
  8
0
100
AcDbBlockEnd
  0
BLOCK
  5
1C
100
AcDbEntity
 67
1
  8
0
100
AcDbBlockBegin
  2
*Paper_Space
 70
0
 10
0.0
 20
0.0
 30
0.0
  3
*Paper_Space
  1

  0
ENDBLK
  5
1D
100
AcDbEntity
 67
1
  8
0
100
AcDbBlockEnd
  0
BLOCK
  5
24
100
AcDbEntity
  8
0
100
AcDbBlockBegin
  2
*Paper_Space0
 70
0
 10
0.0
 20
0.0
 30
0.0
  3
*Paper_Space0
  1

  0
ENDBLK
  5
25
100
AcDbEntity
  8
0
100
AcDbBlockEnd
  0
ENDSEC
  0
SECTION
  2
ENTITIES
  0
LINE
  5
5D
100
AcDbEntity
100
AcDbLine
  8
0
 62
256
370
-1
 48
1.0
  6
BYLAYER
 10
0.0
 20
0.0
 30
0.0
 11
249.9763997741052322
 21
0.0
 31
0.0
  0
IMAGE
  5
5E
  8
0
 62
256
370
-1
 48
1.0
  6
BYLAYER
100
AcDbEntity
100
AcDbRasterImage
 90
0
 10
-22.8316687355760344
 20
-5.9725943273261937
 30
0.0
 11
0.3833993861566032
 21
0.0
 31
0.0
 12
0.0
 22
0.3833993861566032
 32
0.0
 13
317.0
 23
111.0
340
5F
 70
15
280
0
281
50
282
50
283
0
  0
POINT
  5
60
100
AcDbEntity
100
AcDbPoint
  8
Mode0
 62
256
370
-1
 48
1.0
  6
BYLAYER
 10
-0.0032819213532087
 20
87.5054730282548121
 30
0.0
  0
LINE
  5
61
100
AcDbEntity
100
AcDbLine
  8
Mode0
 62
256
370
-1
 48
1.0
  6
BYLAYER
 10
-0.0032819213532087
 20
87.5699999999999932
 30
0.0
 11
5.0391299972264356
 21
85.7755944868442697
 31
0.0
  0
LINE
  5
62
100
AcDbEntity
100
AcDbLine
  8
Mode0
 62
256
370
-1
 48
1.0
  6
BYLAYER
 10
5.0391299972264356
 20
85.7755944868442697
 30
0.0
 11
10.0272741857853358
 21
81.9273879497688142
 31
0.0
  0
LINE
  5
63
100
AcDbEntity
100
AcDbLine
  8
Mode0
 62
256
370
-1
 48
1.0
  6
BYLAYER
 10
10.0272741857853358
 20
81.9273879497688142
 30
0.0
 11
14.9269649811122616
 21
81.4716027595058705
 31
0.0
  0
LINE
  5
64
100
AcDbEntity
100
AcDbLine
  8
Mode0
 62
256
370
-1
 48
1.0
  6
BYLAYER
 10
14.9269649811122616
 20
81.4716027595058705
 30
0.0
 11
20.188394077052358
 21
81.4149386580893122
 31
0.0
  0
LINE
  5
65
100
AcDbEntity
100
AcDbLine
  8
Mode0
 62
256
370
-1
 48
1.0
  6
BYLAYER
 10
20.188394077052358
 20
81.4149386580893122
 30
0.0
 11
24.8999999999999986
 21
33.8999999999999986
 31
0.0
  0
LINE
  5
66
100
AcDbEntity
100
AcDbLine
  8
Mode0
 62
256
370
-1
 48
1.0
  6
BYLAYER
 10
24.8999999999999986
 20
33.8999999999999986
 30
0.0
 11
29.9510549886871118
 21
31.7630783150357772
 31
0.0
  0
LINE
  5
67
100
AcDbEntity
100
AcDbLine
  8
Mode0
 62
256
370
-1
 48
1.0
  6
BYLAYER
 10
29.9510549886871118
 20
31.7630783150357772
 30
0.0
 11
34.9815133526829314
 21
32.5886411038023383
 31
0.0
  0
LINE
  5
68
100
AcDbEntity
100
AcDbLine
  8
Mode0
 62
256
370
-1
 48
1.0
  6
BYLAYER
 10
34.9815133526829314
 20
32.5886411038023383
 30
0.0
 11
39.9571136232037958
 21
31.0889513048825599
 31
0.0
  0
LINE
  5
69
100
AcDbEntity
100
AcDbLine
  8
Mode0
 62
256
370
-1
 48
1.0
  6
BYLAYER
 10
39.9571136232037958
 20
31.0889513048825599
 30
0.0
 11
45.0584150240442369
 21
30.7797815230134439
 31
0.0
  0
LINE
  5
6A
100
AcDbEntity
100
AcDbLine
  8
Mode0
 62
256
370
-1
 48
1.0
  6
BYLAYER
 10
45.0584150240442369
 20
30.7797815230134439
 30
0.0
 11
49.9830479781022987
 21
30.492695296992121
 31
0.0
  0
LINE
  5
6B
100
AcDbEntity
100
AcDbLine
  8
Mode0
 62
256
370
-1
 48
1.0
  6
BYLAYER
 10
49.9830479781022987
 20
30.492695296992121
 30
0.0
 11
55.0293254965207339
 21
28.3812715550337202
 31
0.0
  0
LINE
  5
6C
100
AcDbEntity
100
AcDbLine
  8
Mode0
 62
256
370
-1
 48
1.0
  6
BYLAYER
 10
55.0293254965207339
 20
28.3812715550337202
 30
0.0
 11
59.9848754287657115
 21
24.9800000000000004
 31
0.0
  0
LINE
  5
6D
100
AcDbEntity
100
AcDbLine
  8
Mode0
 62
256
370
-1
 48
1.0
  6
BYLAYER
 10
59.9848754287657115
 20
24.9800000000000004
 30
0.0
 11
64.9914428349159152
 21
24.8011630031037882
 31
0.0
  0
LINE
  5
6E
100
AcDbEntity
100
AcDbLine
  8
Mode0
 62
256
370
-1
 48
1.0
  6
BYLAYER
 10
64.9914428349159152
 20
24.8011630031037882
 30
0.0
 11
70.0069618899297836
 21
24.6925119083326443
 31
0.0
  0
LINE
  5
6F
100
AcDbEntity
100
AcDbLine
  8
Mode0
 62
256
370
-1
 48
1.0
  6
BYLAYER
 10
70.0069618899297836
 20
24.6925119083326443
 30
0.0
 11
75.0655945238016074
 21
24.8733397192470669
 31
0.0
  0
LINE
  5
70
100
AcDbEntity
100
AcDbLine
  8
Mode0
 62
256
370
-1
 48
1.0
  6
BYLAYER
 10
75.0655945238016074
 20
24.8733397192470669
 30
0.0
 11
79.9836198196214667
 21
24.5648364629333962
 31
0.0
  0
LINE
  5
71
100
AcDbEntity
100
AcDbLine
  8
Mode0
 62
256
370
-1
 48
1.0
  6
BYLAYER
 10
79.9836198196214667
 20
24.5648364629333962
 30
0.0
 11
85.0069908056034933
 21
24.312470494161655
 31
0.0
  0
LINE
  5
72
100
AcDbEntity
100
AcDbLine
  8
Mode0
 62
256
370
-1
 48
1.0
  6
BYLAYER
 10
85.0069908056034933
 20
24.312470494161655
 30
0.0
 11
89.9749134180714947
 21
24.2320686840310202
 31
0.0
  0
LINE
  5
73
100
AcDbEntity
100
AcDbLine
  8
Mode0
 62
256
370
-1
 48
1.0
  6
BYLAYER
 10
89.9749134180714947
 20
24.2320686840310202
 30
0.0
 11
95.031212169829189
 21
24.0426687863716566
 31
0.0
  0
LINE
  5
74
100
AcDbEntity
100
AcDbLine
  8
Mode0
 62
256
370
-1
 48
1.0
  6
BYLAYER
 10
95.031212169829189
 20
24.0426687863716566
 30
0.0
 11
100.0577760446259674
 21
24.1533353819674339
 31
0.0
  0
LINE
  5
75
100
AcDbEntity
100
AcDbLine
  8
Mode0
 62
256
370
-1
 48
1.0
  6
BYLAYER
 10
100.0577760446259674
 20
24.1533353819674339
 30
0.0
 11
104.944540058048787
 21
23.8147761912401705
 31
0.0
  0
LINE
  5
76
100
AcDbEntity
100
AcDbLine
  8
Mode0
 62
256
370
-1
 48
1.0
  6
BYLAYER
 10
104.944540058048787
 20
23.8147761912401705
 30
0.0
 11
109.9526704378388047
 21
23.6928424848964383
 31
0.0
  0
LINE
  5
77
100
AcDbEntity
100
AcDbLine
  8
Mode0
 62
256
370
-1
 48
1.0
  6
BYLAYER
 10
109.9526704378388047
 20
23.6928424848964383
 30
0.0
 11
115.0233738451879191
 21
23.5404741286414279
 31
0.0
  0
LINE
  5
78
100
AcDbEntity
100
AcDbLine
  8
Mode0
 62
256
370
-1
 48
1.0
  6
BYLAYER
 10
115.0233738451879191
 20
23.5404741286414279
 30
0.0
 11
120.0562338897448171
 21
23.4630226815720455
 31
0.0
  0
LINE
  5
79
100
AcDbEntity
100
AcDbLine
  8
Mode0
 62
256
370
-1
 48
1.0
  6
BYLAYER
 10
120.0562338897448171
 20
23.4630226815720455
 30
0.0
 11
124.9402469214883666
 21
23.375398228507855
 31
0.0
  0
LINE
  5
7A
100
AcDbEntity
100
AcDbLine
  8
Mode0
 62
256
370
-1
 48
1.0
  6
BYLAYER
 10
124.9402469214883666
 20
23.375398228507855
 30
0.0
 11
130.0649609810748757
 21
23.1709208595468006
 31
0.0
  0
LINE
  5
7B
100
AcDbEntity
100
AcDbLine
  8
Mode0
 62
256
370
-1
 48
1.0
  6
BYLAYER
 10
130.0649609810748757
 20
23.1709208595468006
 30
0.0
 11
135.0263626154047927
 21
22.9032058107142298
 31
0.0
  0
LINE
  5
7C
100
AcDbEntity
100
AcDbLine
  8
Mode0
 62
256
370
-1
 48
1.0
  6
BYLAYER
 10
135.0263626154047927
 20
22.9032058107142298
 30
0.0
 11
139.9260534107317255
 21
23.0171521082799764
 31
0.0
  0
LINE
  5
7D
100
AcDbEntity
100
AcDbLine
  8
Mode0
 62
256
370
-1
 48
1.0
  6
BYLAYER
 10
139.9260534107317255
 20
23.0171521082799764
 30
0.0
 11
144.9396905036243766
 21
22.7892595131484939
 31
0.0
  0
LINE
  5
7E
100
AcDbEntity
100
AcDbLine
  8
Mode0
 62
256
370
-1
 48
1.0
  6
BYLAYER
 10
144.9396905036243766
 20
22.7892595131484939
 30
0.0
 11
150.1812201916485492
 21
22.3334743228855217
 31
0.0
  0
LINE
  5
7F
100
AcDbEntity
100
AcDbLine
  8
Mode0
 62
256
370
-1
 48
1.0
  6
BYLAYER
 10
150.1812201916485492
 20
22.3334743228855217
 30
0.0
 11
155.080910986975482
 21
21.991635430188289
 31
0.0
  0
LINE
  5
80
100
AcDbEntity
100
AcDbLine
  8
Mode0
 62
256
370
-1
 48
1.0
  6
BYLAYER
 10
155.080910986975482
 20
21.991635430188289
 30
0.0
 11
159.9806017823023865
 21
21.8776891326225531
 31
0.0
  0
LINE
  5
81
100
AcDbEntity
100
AcDbLine
  8
Mode0
 62
256
370
-1
 48
1.0
  6
BYLAYER
 10
159.9806017823023865
 20
21.8776891326225531
 30
0.0
 11
164.9942388751950375
 21
21.7637428350568065
 31
0.0
  0
LINE
  5
82
100
AcDbEntity
100
AcDbLine
  8
Mode0
 62
256
370
-1
 48
1.0
  6
BYLAYER
 10
164.9942388751950375
 20
21.7637428350568065
 30
0.0
 11
170.0465917978166033
 21
21.6323537649911017
 31
0.0
  0
LINE
  5
83
100
AcDbEntity
100
AcDbLine
  8
Mode0
 62
256
370
-1
 48
1.0
  6
BYLAYER
 10
170.0465917978166033
 20
21.6323537649911017
 30
0.0
 11
175.0260246867562444
 21
21.1739155037804174
 31
0.0
  0
LINE
  5
84
100
AcDbEntity
100
AcDbLine
  8
Mode0
 62
256
370
-1
 48
1.0
  6
BYLAYER
 10
175.0260246867562444
 20
21.1739155037804174
 30
0.0
 11
180.0351501538730759
 21
21.0800650496623518
 31
0.0
  0
LINE
  5
85
100
AcDbEntity
100
AcDbLine
  8
Mode0
 62
256
370
-1
 48
1.0
  6
BYLAYER
 10
180.0351501538730759
 20
21.0800650496623518
 30
0.0
 11
185.000776944601057
 21
20.5751413569821686
 31
0.0
  0
LINE
  5
86
100
AcDbEntity
100
AcDbLine
  8
Mode0
 62
256
370
-1
 48
1.0
  6
BYLAYER
 10
185.000776944601057
 20
20.5751413569821686
 30
0.0
 11
189.9861828301445996
 21
20.3553661036323348
 31
0.0
  0
LINE
  5
87
100
AcDbEntity
100
AcDbLine
  8
Mode0
 62
256
370
-1
 48
1.0
  6
BYLAYER
 10
189.9861828301445996
 20
20.3553661036323348
 30
0.0
 11
195.0028326574412461
 21
20.2264441733524905
 31
0.0
  0
LINE
  5
88
100
AcDbEntity
100
AcDbLine
  8
Mode0
 62
256
370
-1
 48
1.0
  6
BYLAYER
 10
195.0028326574412461
 20
20.2264441733524905
 30
0.0
 11
199.9900356864013986
 21
19.6191463875381551
 31
0.0
  0
LINE
  5
89
100
AcDbEntity
100
AcDbLine
  8
Mode0
 62
256
370
-1
 48
1.0
  6
BYLAYER
 10
199.9900356864013986
 20
19.6191463875381551
 30
0.0
 11
204.9893893207706697
 21
19.2569242886104739
 31
0.0
  0
LINE
  5
8A
100
AcDbEntity
100
AcDbLine
  8
Mode0
 62
256
370
-1
 48
1.0
  6
BYLAYER
 10
204.9893893207706697
 20
19.2569242886104739
 30
0.0
 11
209.9587110528548521
 21
18.8788132709890242
 31
0.0
  0
LINE
  5
8B
100
AcDbEntity
100
AcDbLine
  8
Mode0
 62
256
370
-1
 48
1.0
  6
BYLAYER
 10
209.9587110528548521
 20
18.8788132709890242
 30
0.0
 11
214.9556267568406724
 21
18.5081980397471035
 31
0.0
  0
LINE
  5
8C
100
AcDbEntity
100
AcDbLine
  8
Mode0
 62
256
370
-1
 48
1.0
  6
BYLAYER
 10
214.9556267568406724
 20
18.5081980397471035
 30
0.0
 11
219.9523431155415665
 21
17.8342798095103099
 31
0.0
  0
LINE
  5
8D
100
AcDbEntity
100
AcDbLine
  8
Mode0
 62
256
370
-1
 48
1.0
  6
BYLAYER
 10
219.9523431155415665
 20
17.8342798095103099
 30
0.0
 11
225.0439376923413022
 21
17.4337835275585959
 31
0.0
  0
LINE
  5
8E
100
AcDbEntity
100
AcDbLine
  8
Mode0
 62
256
370
-1
 48
1.0
  6
BYLAYER
 10
225.0439376923413022
 20
17.4337835275585959
 30
0.0
 11
230.0026695604904603
 21
17.0944577239528179
 31
0.0
  0
LINE
  5
8F
100
AcDbEntity
100
AcDbLine
  8
Mode0
 62
256
370
-1
 48
1.0
  6
BYLAYER
 10
230.0026695604904603
 20
17.0944577239528179
 30
0.0
 11
235.050704606716522
 21
16.4426861103894488
 31
0.0
  0
LINE
  5
90
100
AcDbEntity
100
AcDbLine
  8
Mode0
 62
256
370
-1
 48
1.0
  6
BYLAYER
 10
235.050704606716522
 20
16.4426861103894488
 30
0.0
 11
239.8948800163292105
 21
15.9215201530440442
 31
0.0
  0
LINE
  5
91
100
AcDbEntity
100
AcDbLine
  8
Mode0
 62
256
370
-1
 48
1.0
  6
BYLAYER
 10
239.8948800163292105
 20
15.9215201530440442
 30
0.0
 11
244.9556948981153823
 21
15.2314090328004816
 31
0.0
  0
LINE
  5
92
100
AcDbEntity
100
AcDbLine
  8
Mode0
 62
256
370
-1
 48
1.0
  6
BYLAYER
 10
244.9556948981153823
 20
15.2314090328004816
 30
0.0
 11
250.0049772562920225
 21
14.1922550437403903
 31
0.0
  0
LINE
  5
93
100
AcDbEntity
100
AcDbLine
  8
Mode0
 62
256
370
-1
 48
1.0
  6
BYLAYER
 10
250.0049772562920225
 20
14.1922550437403903
 30
0.0
 11
255.0151180212624524
 21
13.5887205314004511
 31
0.0
  0
LINE
  5
94
100
AcDbEntity
100
AcDbLine
  8
Mode0
 62
256
370
-1
 48
1.0
  6
BYLAYER
 10
255.0151180212624524
 20
13.5887205314004511
 30
0.0
 11
260.0759329030486242
 21
12.502945702217243
 31
0.0
  0
LINE
  5
95
100
AcDbEntity
100
AcDbLine
  8
Mode0
 62
256
370
-1
 48
1.0
  6
BYLAYER
 10
260.0759329030486242
 20
12.502945702217243
 30
0.0
 11
264.9938631347549176
 21
11.1336654808710609
 31
0.0
  0
LINE
  5
96
100
AcDbEntity
100
AcDbLine
  8
Mode0
 62
256
370
-1
 48
1.0
  6
BYLAYER
 10
265.0089877059892274
 20
11.1974286380932124
 30
0.0
 11
270.1231555164717975
 21
9.5719623657803545
 31
0.0
  0
LINE
  5
97
100
AcDbEntity
100
AcDbLine
  8
Mode0
 62
256
370
-1
 48
1.0
  6
BYLAYER
 10
270.1080309452374877
 20
9.508199208558203
 30
0.0
 11
275.0105803434477139
 21
7.4985956264089433
 31
0.0
  0
LINE
  5
98
100
AcDbEntity
100
AcDbLine
  8
Mode0
 62
256
370
-1
 48
1.0
  6
BYLAYER
 10
275.0105803434477139
 20
7.4985956264089433
 30
0.0
 11
280.0215688342930775
 21
7.2838021288109589
 31
0.0
  0
LINE
  5
99
100
AcDbEntity
100
AcDbLine
  8
Mode0
 62
256
370
-1
 48
1.0
  6
BYLAYER
 10
280.0215688342930775
 20
7.2838021288109589
 30
0.0
 11
285.0158091563833977
 21
8.5148631996797466
 31
0.0
  0
LINE
  5
9A
100
AcDbEntity
100
AcDbLine
  8
0
 62
256
370
-1
 48
1.0
  6
BYLAYER
 10
-0.0029068486623478
 20
-0.0415233912143496
 30
0.0
 11
-0.0255683001872473
 21
60.4071535183691424
 31
0.0
  0
LINE
  5
9B
100
AcDbEntity
100
AcDbLine
  8
Mode1
 62
256
370
-1
 48
1.0
  6
BYLAYER
 10
-0.0353748773148936
 20
42.8684301663186673
 30
0.0
 11
4.9838780792951702
 21
43.4480490581139378
 31
0.0
  0
LINE
  5
9C
100
AcDbEntity
100
AcDbLine
  8
Mode1
 62
256
370
-1
 48
1.0
  6
BYLAYER
 10
4.9838780792951702
 20
43.4480490581139378
 30
0.0
 11
10.0114301918503958
 21
43.2765292222392333
 31
0.0
  0
LINE
  5
9D
100
AcDbEntity
100
AcDbLine
  8
Mode1
 62
256
370
-1
 48
1.0
  6
BYLAYER
 10
10.0114301918503958
 20
43.2765292222392333
 30
0.0
 11
14.9920562030927353
 21
43.9887015759931259
 31
0.0
  0
LINE
  5
9E
100
AcDbEntity
100
AcDbLine
  8
Mode1
 62
256
370
-1
 48
1.0
  6
BYLAYER
 10
14.9920562030927353
 20
43.9887015759931259
 30
0.0
 11
20.0238641532508197
 21
43.828690136652483
 31
0.0
  0
LINE
  5
9F
100
AcDbEntity
100
AcDbLine
  8
Mode1
 62
256
370
-1
 48
1.0
  6
BYLAYER
 10
20.0238641532508197
 20
43.828690136652483
 30
0.0
 11
24.9962543058433937
 21
43.8819657454302643
 31
0.0
  0
LINE
  5
A0
100
AcDbEntity
100
AcDbLine
  8
Mode1
 62
256
370
-1
 48
1.0
  6
BYLAYER
 10
24.9962543058433937
 20
43.8819657454302643
 30
0.0
 11
30.0041615309544873
 21
43.2781755126154479
 31
0.0
  0
LINE
  5
A1
100
AcDbEntity
100
AcDbLine
  8
Mode1
 62
256
370
-1
 48
1.0
  6
BYLAYER
 10
30.0041615309544873
 20
43.2781755126154479
 30
0.0
 11
35.0475858285840971
 21
42.2126633370599009
 31
0.0
  0
LINE
  5
A2
100
AcDbEntity
100
AcDbLine
  8
Mode1
 62
256
370
-1
 48
1.0
  6
BYLAYER
 10
35.0475858285840971
 20
42.2126633370599009
 30
0.0
 11
39.9711044893911946
 21
41.01990911818244
 31
0.0
  0
LINE
  5
A3
100
AcDbEntity
100
AcDbLine
  8
Mode1
 62
256
370
-1
 48
1.0
  6
BYLAYER
 10
39.9711044893911946
 20
41.01990911818244
 30
0.0
 11
44.9544303391410125
 21
41.4210485579654417
 31
0.0
  0
LINE
  5
A4
100
AcDbEntity
100
AcDbLine
  8
Mode1
 62
256
370
-1
 48
1.0
  6
BYLAYER
 10
44.9544303391410125
 20
41.4210485579654417
 30
0.0
 11
49.9467168337369714
 21
42.6541981865175401
 31
0.0
  0
LINE
  5
A5
100
AcDbEntity
100
AcDbLine
  8
Mode1
 62
256
370
-1
 48
1.0
  6
BYLAYER
 10
49.9467168337369714
 20
42.6541981865175401
 30
0.0
 11
55.0565533213665432
 21
41.4453154282288807
 31
0.0
  0
LINE
  5
A6
100
AcDbEntity
100
AcDbLine
  8
Mode1
 62
256
370
-1
 48
1.0
  6
BYLAYER
 10
55.0565533213665432
 20
41.4453154282288807
 30
0.0
 11
59.96256690993809
 21
20.4045656212508462
 31
0.0
  0
LINE
  5
A7
100
AcDbEntity
100
AcDbLine
  8
Mode1
 62
256
370
-1
 48
1.0
  6
BYLAYER
 10
59.96256690993809
 20
20.4045656212508462
 30
0.0
 11
64.9738218006657462
 21
20.4827172550235233
 31
0.0
  0
LINE
  5
A8
100
AcDbEntity
100
AcDbLine
  8
Mode1
 62
256
370
-1
 48
1.0
  6
BYLAYER
 10
64.9738218006657462
 20
20.4827172550235233
 30
0.0
 11
69.9684101235824016
 21
20.1867416507025332
 31
0.0
  0
LINE
  5
A9
100
AcDbEntity
100
AcDbLine
  8
Mode1
 62
256
370
-1
 48
1.0
  6
BYLAYER
 10
69.9684101235824016
 20
20.1867416507025332
 30
0.0
 11
74.9261790813215498
 21
20.1670494071617199
 31
0.0
  0
LINE
  5
AA
100
AcDbEntity
100
AcDbLine
  8
Mode1
 62
256
370
-1
 48
1.0
  6
BYLAYER
 10
74.9261790813215498
 20
20.1670494071617199
 30
0.0
 11
79.9982482925714464
 21
19.6906686109470819
 31
0.0
  0
LINE
  5
AB
100
AcDbEntity
100
AcDbLine
  8
Mode1
 62
256
370
-1
 48
1.0
  6
BYLAYER
 10
79.9982482925714464
 20
19.6906686109470819
 30
0.0
 11
84.9254737781560323
 21
19.3521233221720586
 31
0.0
  0
LINE
  5
AC
100
AcDbEntity
100
AcDbLine
  8
Mode1
 62
256
370
-1
 48
1.0
  6
BYLAYER
 10
84.9254737781560323
 20
19.3521233221720586
 30
0.0
 11
89.9850354330773854
 21
18.9273166626287761
 31
0.0
  0
LINE
  5
AD
100
AcDbEntity
100
AcDbLine
  8
Mode1
 62
256
370
-1
 48
1.0
  6
BYLAYER
 10
89.9850354330773854
 20
18.9273166626287761
 30
0.0
 11
94.9374898383077266
 21
18.553761050507056
 31
0.0
  0
LINE
  5
AE
100
AcDbEntity
100
AcDbLine
  8
Mode1
 62
256
370
-1
 48
1.0
  6
BYLAYER
 10
94.9374898383077266
 20
18.553761050507056
 30
0.0
 11
99.9290931680859131
 21
15.0474906063758223
 31
0.0
  0
LINE
  5
AF
100
AcDbEntity
100
AcDbLine
  8
Mode1
 62
256
370
-1
 48
1.0
  6
BYLAYER
 10
99.9290931680859131
 20
15.0474906063758223
 30
0.0
 11
104.9568504903934496
 21
14.77654467232691
 31
0.0
  0
LINE
  5
B0
100
AcDbEntity
100
AcDbLine
  8
Mode1
 62
256
370
-1
 48
1.0
  6
BYLAYER
 10
104.9568504903934496
 20
14.77654467232691
 30
0.0
 11
109.9397955276702703
 21
14.7753486151781441
 31
0.0
  0
LINE
  5
B1
100
AcDbEntity
100
AcDbLine
  8
Mode1
 62
256
370
-1
 48
1.0
  6
BYLAYER
 10
109.9397955276702703
 20
14.7753486151781441
 30
0.0
 11
114.9837131179737497
 21
14.6520254467110647
 31
0.0
  0
LINE
  5
B2
100
AcDbEntity
100
AcDbLine
  8
Mode1
 62
256
370
-1
 48
1.0
  6
BYLAYER
 10
114.9837131179737497
 20
14.6520254467110647
 30
0.0
 11
119.9821088700382603
 21
14.5359173231648349
 31
0.0
  0
LINE
  5
B3
100
AcDbEntity
100
AcDbLine
  8
Mode1
 62
256
370
-1
 48
1.0
  6
BYLAYER
 10
119.9821088700382603
 20
14.5359173231648349
 30
0.0
 11
125.0028714570186423
 21
14.5467726385155345
 31
0.0
  0
LINE
  5
B4
100
AcDbEntity
100
AcDbLine
  8
Mode1
 62
256
370
-1
 48
1.0
  6
BYLAYER
 10
125.0028714570186423
 20
14.5467726385155345
 30
0.0
 11
130.0054571747447199
 21
14.4334120905978427
 31
0.0
  0
LINE
  5
B5
100
AcDbEntity
100
AcDbLine
  8
Mode1
 62
256
370
-1
 48
1.0
  6
BYLAYER
 10
130.0054571747447199
 20
14.4334120905978427
 30
0.0
 11
135.0250784477816524
 21
14.305358732103814
 31
0.0
  0
LINE
  5
B6
100
AcDbEntity
100
AcDbLine
  8
Mode1
 62
256
370
-1
 48
1.0
  6
BYLAYER
 10
135.0250784477816524
 20
14.305358732103814
 30
0.0
 11
140.003127570739025
 21
14.1780805741553184
 31
0.0
  0
LINE
  5
B7
100
AcDbEntity
100
AcDbLine
  8
Mode1
 62
256
370
-1
 48
1.0
  6
BYLAYER
 10
140.003127570739025
 20
14.1780805741553184
 30
0.0
 11
145.0245313443075759
 21
13.9350133496215633
 31
0.0
  0
LINE
  5
B8
100
AcDbEntity
100
AcDbLine
  8
Mode1
 62
256
370
-1
 48
1.0
  6
BYLAYER
 10
145.0245313443075759
 20
13.9350133496215633
 30
0.0
 11
150.0098123087501563
 21
13.7581945857682832
 31
0.0
  0
LINE
  5
B9
100
AcDbEntity
100
AcDbLine
  8
Mode1
 62
256
370
-1
 48
1.0
  6
BYLAYER
 10
150.0098123087501563
 20
13.7581945857682832
 30
0.0
 11
154.9496791930241102
 21
13.7900642741803345
 31
0.0
  0
LINE
  5
BA
100
AcDbEntity
100
AcDbLine
  8
Mode1
 62
256
370
-1
 48
1.0
  6
BYLAYER
 10
154.9496791930241102
 20
13.7900642741803345
 30
0.0
 11
159.9951489583235684
 21
13.6363796598707907
 31
0.0
  0
LINE
  5
BB
100
AcDbEntity
100
AcDbLine
  8
Mode1
 62
256
370
-1
 48
1.0
  6
BYLAYER
 10
159.9951489583235684
 20
13.6363796598707907
 30
0.0
 11
164.9529247037699236
 21
13.5164700767068844
 31
0.0
  0
LINE
  5
BC
100
AcDbEntity
100
AcDbLine
  8
Mode1
 62
256
370
-1
 48
1.0
  6
BYLAYER
 10
164.9529247037699236
 20
13.5164700767068844
 30
0.0
 11
169.9739022115678324
 21
13.4163149314241181
 31
0.0
  0
LINE
  5
BD
100
AcDbEntity
100
AcDbLine
  8
Mode1
 62
256
370
-1
 48
1.0
  6
BYLAYER
 10
169.9739022115678324
 20
13.4163149314241181
 30
0.0
 11
175.0339603381602842
 21
13.1821863893820463
 31
0.0
  0
LINE
  5
BE
100
AcDbEntity
100
AcDbLine
  8
Mode1
 62
256
370
-1
 48
1.0
  6
BYLAYER
 10
175.0339603381602842
 20
13.1821863893820463
 30
0.0
 11
179.9594884760036564
 21
13.1425146086471401
 31
0.0
  0
LINE
  5
BF
100
AcDbEntity
100
AcDbLine
  8
Mode1
 62
256
370
-1
 48
1.0
  6
BYLAYER
 10
179.9594884760036564
 20
13.1425146086471401
 30
0.0
 11
185.0444284166107423
 21
13.096636285261976
 31
0.0
  0
LINE
  5
C0
100
AcDbEntity
100
AcDbLine
  8
Mode1
 62
256
370
-1
 48
1.0
  6
BYLAYER
 10
185.0444284166107423
 20
13.096636285261976
 30
0.0
 11
190.0585088282869606
 21
12.7976063194017797
 31
0.0
  0
LINE
  5
C1
100
AcDbEntity
100
AcDbLine
  8
Mode1
 62
256
370
-1
 48
1.0
  6
BYLAYER
 10
190.0585088282869606
 20
12.7976063194017797
 30
0.0
 11
194.9266906272809479
 21
12.8286559756120937
 31
0.0
  0
LINE
  5
C2
100
AcDbEntity
100
AcDbLine
  8
Mode1
 62
256
370
-1
 48
1.0
  6
BYLAYER
 10
194.9266906272809479
 20
12.8286559756120937
 30
0.0
 11
199.9489901594448895
 21
12.4546572556507051
 31
0.0
  0
LINE
  5
C3
100
AcDbEntity
100
AcDbLine
  8
Mode1
 62
256
370
-1
 48
1.0
  6
BYLAYER
 10
199.9489901594448895
 20
12.4546572556507051
 30
0.0
 11
204.878168255181123
 21
12.2624390397650664
 31
0.0
  0
LINE
  5
C4
100
AcDbEntity
100
AcDbLine
  8
Mode1
 62
256
370
-1
 48
1.0
  6
BYLAYER
 10
204.878168255181123
 20
12.2624390397650664
 30
0.0
 11
209.9837474297181359
 21
11.8184756332835867
 31
0.0
  0
LINE
  5
C5
100
AcDbEntity
100
AcDbLine
  8
Mode1
 62
256
370
-1
 48
1.0
  6
BYLAYER
 10
209.9837474297181359
 20
11.8184756332835867
 30
0.0
 11
214.9095073295616487
 21
11.9758033849451522
 31
0.0
  0
LINE
  5
C6
100
AcDbEntity
100
AcDbLine
  8
Mode1
 62
256
370
-1
 48
1.0
  6
BYLAYER
 10
214.9095073295616487
 20
11.9758033849451522
 30
0.0
 11
219.9287602861717232
 21
11.6551631469307502
 31
0.0
  0
LINE
  5
C7
100
AcDbEntity
100
AcDbLine
  8
Mode1
 62
256
370
-1
 48
1.0
  6
BYLAYER
 10
219.9287602861717232
 20
11.6551631469307502
 30
0.0
 11
225.0112735498971404
 21
11.7407086448811544
 31
0.0
  0
LINE
  5
C8
100
AcDbEntity
100
AcDbLine
  8
Mode1
 62
256
370
-1
 48
1.0
  6
BYLAYER
 10
225.0112735498971404
 20
11.7407086448811544
 30
0.0
 11
230.0126002507387284
 21
11.1154141401035069
 31
0.0
  0
LINE
  5
C9
100
AcDbEntity
100
AcDbLine
  8
Mode1
 62
256
370
-1
 48
1.0
  6
BYLAYER
 10
230.0126002507387284
 20
11.1154141401035069
 30
0.0
 11
234.9730864366913465
 21
11.2203469055959033
 31
0.0
  0
LINE
  5
CA
100
AcDbEntity
100
AcDbLine
  8
Mode1
 62
256
370
-1
 48
1.0
  6
BYLAYER
 10
234.9730864366913465
 20
11.2203469055959033
 30
0.0
 11
239.9865217494407545
 21
10.5406119372976441
 31
0.0
  0
LINE
  5
CB
100
AcDbEntity
100
AcDbLine
  8
Mode1
 62
256
370
-1
 48
1.0
  6
BYLAYER
 10
239.9865217494407545
 20
10.5406119372976441
 30
0.0
 11
245.0219701754119512
 21
10.5415882884667127
 31
0.0
  0
LINE
  5
CC
100
AcDbEntity
100
AcDbLine
  8
Mode1
 62
256
370
-1
 48
1.0
  6
BYLAYER
 10
245.0219701754119512
 20
10.5415882884667127
 30
0.0
 11
250.032360285057365
 21
9.6931043903621017
 31
0.0
  0
LINE
  5
CD
100
AcDbEntity
100
AcDbLine
  8
Mode1
 62
256
370
-1
 48
1.0
  6
BYLAYER
 10
250.032360285057365
 20
9.6931043903621017
 30
0.0
 11
255.0566335974071706
 21
9.5651887854915518
 31
0.0
  0
LINE
  5
CE
100
AcDbEntity
100
AcDbLine
  8
Mode1
 62
256
370
-1
 48
1.0
  6
BYLAYER
 10
255.0566335974071706
 20
9.5651887854915518
 30
0.0
 11
259.9700042720211286
 21
9.6882900643366945
 31
0.0
  0
LINE
  5
CF
100
AcDbEntity
100
AcDbLine
  8
Mode1
 62
256
370
-1
 48
1.0
  6
BYLAYER
 10
259.9700042720211286
 20
9.6882900643366945
 30
0.0
 11
264.9479382955127562
 21
8.5044702045146465
 31
0.0
  0
LINE
  5
D0
100
AcDbEntity
100
AcDbLine
  8
Mode1
 62
256
370
-1
 48
1.0
  6
BYLAYER
 10
264.9479382955127562
 20
8.5044702045146465
 30
0.0
 11
270.0471741647462522
 21
8.5483766507273522
 31
0.0
  0
LINE
  5
D1
100
AcDbEntity
100
AcDbLine
  8
Mode1
 62
256
370
-1
 48
1.0
  6
BYLAYER
 10
270.0471741647462522
 20
8.5483766507273522
 30
0.0
 11
275.0410659145592263
 21
8.4661858697163268
 31
0.0
  0
LINE
  5
D2
100
AcDbEntity
100
AcDbLine
  8
Mode1
 62
256
370
-1
 48
1.0
  6
BYLAYER
 10
275.0410659145592263
 20
8.4661858697163268
 30
0.0
 11
280.1062590205696097
 21
8.3754792128454199
 31
0.0
  0
LINE
  5
D3
100
AcDbEntity
100
AcDbLine
  8
Mode1
 62
256
370
-1
 48
1.0
  6
BYLAYER
 10
280.1062590205696097
 20
8.3754792128454199
 30
0.0
 11
285.0411090481929364
 21
8.3449117995530813
 31
0.0
  0
LINE
  5
D4
100
AcDbEntity
100
AcDbLine
  8
Mode2
 62
256
370
-1
 48
1.0
  6
BYLAYER
 10
-0.0324750288952558
 20
91.3831015797443058
 30
0.0
 11
5.0117178320587641
 21
90.3714528722549204
 31
0.0
  0
LINE
  5
D5
100
AcDbEntity
100
AcDbLine
  8
Mode2
 62
256
370
-1
 48
1.0
  6
BYLAYER
 10
5.0117178320587641
 20
90.3714528722549204
 30
0.0
 11
9.99970798704115
 21
89.5565136356662492
 31
0.0
  0
LINE
  5
D6
100
AcDbEntity
100
AcDbLine
  8
Mode2
 62
256
370
-1
 48
1.0
  6
BYLAYER
 10
9.99970798704115
 20
89.5565136356662492
 30
0.0
 11
15.1001035539668038
 21
88.6713210166130352
 31
0.0
  0
LINE
  5
D7
100
AcDbEntity
100
AcDbLine
  8
Mode2
 62
256
370
-1
 48
1.0
  6
BYLAYER
 10
15.1001035539668038
 20
88.6713210166130352
 30
0.0
 11
20.0
 21
87.2999999999999972
 31
0.0
  0
LINE
  5
D8
100
AcDbEntity
100
AcDbLine
  8
Mode2
 62
256
370
-1
 48
1.0
  6
BYLAYER
 10
25.0645424153079261
 20
86.3602927367480362
 30
0.0
 11
30.004760270214426
 21
84.7079331811820424
 31
0.0
  0
LINE
  5
D9
100
AcDbEntity
100
AcDbLine
  8
Mode2
 62
256
370
-1
 48
1.0
  6
BYLAYER
 10
30.004760270214426
 20
84.7079331811820424
 30
0.0
 11
34.9955605604953917
 21
82.5328884600798602
 31
0.0
  0
LINE
  5
DA
100
AcDbEntity
100
AcDbLine
  8
Mode2
 62
256
370
-1
 48
1.0
  6
BYLAYER
 10
34.9955605604953917
 20
82.5328884600798602
 30
0.0
 11
40.0538040979423187
 21
80.8805289045138665
 31
0.0
  0
LINE
  5
DB
100
AcDbEntity
100
AcDbLine
  8
Mode2
 62
256
370
-1
 48
1.0
  6
BYLAYER
 10
40.0538040979423187
 20
80.8805289045138665
 30
0.0
 11
45.0447383777763974
 21
79.7158698080130108
 31
0.0
  0
LINE
  5
DC
100
AcDbEntity
100
AcDbLine
  8
Mode2
 62
256
370
-1
 48
1.0
  6
BYLAYER
 10
45.0447383777763974
 20
79.7158698080130108
 30
0.0
 11
50.0259719279757533
 21
80.2324304930637311
 31
0.0
  0
LINE
  5
DD
100
AcDbEntity
100
AcDbLine
  8
Mode2
 62
256
370
-1
 48
1.0
  6
BYLAYER
 10
50.0259719279757533
 20
80.2324304930637311
 30
0.0
 11
55.0673546536311846
 21
81.1597751415956736
 31
0.0
  0
LINE
  5
DE
100
AcDbEntity
100
AcDbLine
  8
Mode2
 62
256
370
-1
 48
1.0
  6
BYLAYER
 10
55.0673546536311846
 20
81.1597751415956736
 30
0.0
 11
60.0469038995561633
 21
82.9073724041370923
 31
0.0
  0
LINE
  5
DF
100
AcDbEntity
100
AcDbLine
  8
Mode2
 62
256
370
-1
 48
1.0
  6
BYLAYER
 10
60.0469038995561633
 20
82.9073724041370923
 30
0.0
 11
65.0646814887035134
 21
83.7976232667277543
 31
0.0
  0
LINE
  5
E0
100
AcDbEntity
100
AcDbLine
  8
Mode2
 62
256
370
-1
 48
1.0
  6
BYLAYER
 10
65.0646814887035134
 20
83.7976232667277543
 30
0.0
 11
69.9481460101935681
 21
81.3828922155171597
 31
0.0
  0
LINE
  5
E1
100
AcDbEntity
100
AcDbLine
  8
Mode2
 62
256
370
-1
 48
1.0
  6
BYLAYER
 10
69.9481460101935681
 20
81.3828922155171597
 30
0.0
 11
75.0063895476404952
 21
77.875843362887295
 31
0.0
  0
LINE
  5
E2
100
AcDbEntity
100
AcDbLine
  8
Mode2
 62
256
370
-1
 48
1.0
  6
BYLAYER
 10
75.0063895476404952
 20
77.875843362887295
 30
0.0
 11
80.0140506497129422
 21
79.1066826236660461
 31
0.0
  0
LINE
  5
E3
100
AcDbEntity
100
AcDbLine
  8
Mode2
 62
256
370
-1
 48
1.0
  6
BYLAYER
 10
80.0140506497129422
 20
79.1066826236660461
 30
0.0
 11
85.005674156851029
 21
73.2180450135510767
 31
0.0
  0
LINE
  5
E4
100
AcDbEntity
100
AcDbLine
  8
Mode2
 62
256
370
-1
 48
1.0
  6
BYLAYER
 10
85.005674156851029
 20
73.2180450135510767
 30
0.0
 11
90.0133352589234903
 21
74.3983018389553621
 31
0.0
  0
LINE
  5
E5
100
AcDbEntity
100
AcDbLine
  8
Mode2
 62
256
370
-1
 48
1.0
  6
BYLAYER
 10
90.0133352589234903
 20
74.3983018389553621
 30
0.0
 11
95.0209963609959516
 21
69.4918056076318464
 31
0.0
  0
LINE
  5
E6
100
AcDbEntity
100
AcDbLine
  8
Mode2
 62
256
370
-1
 48
1.0
  6
BYLAYER
 10
95.0209963609959516
 20
69.4918056076318464
 30
0.0
 11
99.9815188831952071
 21
64.7623240867177117
 31
0.0
  0
LINE
  5
E7
100
AcDbEntity
100
AcDbLine
  8
Mode2
 62
256
370
-1
 48
1.0
  6
BYLAYER
 10
99.9815188831952071
 20
64.7623240867177117
 30
0.0
 11
105.0075210605263152
 21
64.5912652408201069
 31
0.0
  0
LINE
  5
E8
100
AcDbEntity
100
AcDbLine
  8
Mode2
 62
256
370
-1
 48
1.0
  6
BYLAYER
 10
105.0075210605263152
 20
64.5912652408201069
 30
0.0
 11
109.9645997272243108
 21
64.5406828054456412
 31
0.0
  0
LINE
  5
E9
100
AcDbEntity
100
AcDbLine
  8
Mode2
 62
256
370
-1
 48
1.0
  6
BYLAYER
 10
109.9645997272243108
 20
64.5406828054456412
 30
0.0
 11
115.0228432646712378
 21
64.6755692997775498
 31
0.0
  0
LINE
  5
EA
100
AcDbEntity
100
AcDbLine
  8
Mode2
 62
256
370
-1
 48
1.0
  6
BYLAYER
 10
115.0228432646712378
 20
64.6755692997775498
 30
0.0
 11
119.9925335994136617
 21
64.5011100191429279
 31
0.0
  0
LINE
  5
EB
100
AcDbEntity
100
AcDbLine
  8
Mode2
 62
256
370
-1
 48
1.0
  6
BYLAYER
 10
119.9925335994136617
 20
64.5011100191429279
 30
0.0
 11
125.0468741711681133
 21
64.0132393075836177
 31
0.0
  0
LINE
  5
EC
100
AcDbEntity
100
AcDbLine
  8
Mode2
 62
256
370
-1
 48
1.0
  6
BYLAYER
 10
125.0468741711681133
 20
64.0132393075836177
 30
0.0
 11
129.9773053724481144
 21
63.0838076592416712
 31
0.0
  0
LINE
  5
ED
100
AcDbEntity
100
AcDbLine
  8
Mode2
 62
256
370
-1
 48
1.0
  6
BYLAYER
 10
129.9773053724481144
 20
63.0838076592416712
 30
0.0
 11
135.0355489098950557
 21
62.5948441172884671
 31
0.0
  0
LINE
  5
EE
100
AcDbEntity
100
AcDbLine
  8
Mode2
 62
256
370
-1
 48
1.0
  6
BYLAYER
 10
135.0355489098950557
 20
62.5948441172884671
 30
0.0
 11
139.985371373816804
 21
61.4912676525093644
 31
0.0
  0
LINE
  5
EF
100
AcDbEntity
100
AcDbLine
  8
Mode2
 62
256
370
-1
 48
1.0
  6
BYLAYER
 10
139.985371373816804
 20
61.4912676525093644
 30
0.0
 11
144.9761716640977909
 21
60.9685824869731832
 31
0.0
  0
LINE
  5
F0
100
AcDbEntity
100
AcDbLine
  8
Mode2
 62
256
370
-1
 48
1.0
  6
BYLAYER
 10
144.9761716640977909
 20
60.9685824869731832
 30
0.0
 11
149.9854941361435863
 21
59.988283343132025
 31
0.0
  0
LINE
  5
F1
100
AcDbEntity
100
AcDbLine
  8
Mode2
 62
256
370
-1
 48
1.0
  6
BYLAYER
 10
149.9854941361435863
 20
59.988283343132025
 30
0.0
 11
155.0356444839305823
 21
59.2113371357801839
 31
0.0
  0
LINE
  5
F2
100
AcDbEntity
100
AcDbLine
  8
Mode2
 62
256
370
-1
 48
1.0
  6
BYLAYER
 10
155.0356444839305823
 20
59.2113371357801839
 30
0.0
 11
160.0314220426887744
 21
58.5787792662517148
 31
0.0
  0
LINE
  5
F3
100
AcDbEntity
100
AcDbLine
  8
Mode2
 62
256
370
-1
 48
1.0
  6
BYLAYER
 10
160.0314220426887744
 20
58.5787792662517148
 30
0.0
 11
165.0882076777796215
 21
57.6664445953035241
 31
0.0
  0
LINE
  5
F4
100
AcDbEntity
100
AcDbLine
  8
Mode2
 62
256
370
-1
 48
1.0
  6
BYLAYER
 10
165.0882076777796215
 20
57.6664445953035241
 30
0.0
 11
170.0457807201319724
 21
56.9480126904040844
 31
0.0
  0
LINE
  5
F5
100
AcDbEntity
100
AcDbLine
  8
Mode2
 62
256
370
-1
 48
1.0
  6
BYLAYER
 10
170.0457807201319724
 20
56.9480126904040844
 30
0.0
 11
175.0703026339959365
 21
55.8014774885827833
 31
0.0
  0
LINE
  5
F6
100
AcDbEntity
100
AcDbLine
  8
Mode2
 62
256
370
-1
 48
1.0
  6
BYLAYER
 10
175.0703026339959365
 20
55.8014774885827833
 30
0.0
 11
179.9674972825905286
 21
55.2541379120527694
 31
0.0
  0
LINE
  5
F7
100
AcDbEntity
100
AcDbLine
  8
Mode2
 62
256
370
-1
 48
1.0
  6
BYLAYER
 10
179.9674972825905286
 20
55.2541379120527694
 30
0.0
 11
185.0426016318289442
 21
53.9052729687335912
 31
0.0
  0
LINE
  5
F8
100
AcDbEntity
100
AcDbLine
  8
Mode2
 62
256
370
-1
 48
1.0
  6
BYLAYER
 10
185.0426016318289442
 20
53.9052729687335912
 30
0.0
 11
190.0165411103184283
 21
53.1971188734910214
 31
0.0
  0
LINE
  5
F9
100
AcDbEntity
100
AcDbLine
  8
Mode2
 62
256
370
-1
 48
1.0
  6
BYLAYER
 10
190.0165411103184283
 20
53.1971188734910214
 30
0.0
 11
195.0208602672051654
 21
52.2110683807538436
 31
0.0
  0
LINE
  5
FA
100
AcDbEntity
100
AcDbLine
  8
Mode2
 62
256
370
-1
 48
1.0
  6
BYLAYER
 10
195.0208602672051654
 20
52.2110683807538436
 30
0.0
 11
200.0179197695868822
 21
50.7240196136066714
 31
0.0
  0
LINE
  5
FB
100
AcDbEntity
100
AcDbLine
  8
Mode2
 62
256
370
-1
 48
1.0
  6
BYLAYER
 10
200.0179197695868822
 20
50.7240196136066714
 30
0.0
 11
204.9936734714251259
 21
49.5698024802224211
 31
0.0
  0
LINE
  5
FC
100
AcDbEntity
100
AcDbLine
  8
Mode2
 62
256
370
-1
 48
1.0
  6
BYLAYER
 10
204.9936734714251259
 20
49.5698024802224211
 30
0.0
 11
210.0167903176397601
 21
48.5511284344865857
 31
0.0
  0
LINE
  5
FD
100
AcDbEntity
100
AcDbLine
  8
Mode2
 62
256
370
-1
 48
1.0
  6
BYLAYER
 10
210.0167903176397601
 20
48.5511284344865857
 30
0.0
 11
215.0272412333113152
 21
47.6768360805667086
 31
0.0
  0
LINE
  5
FE
100
AcDbEntity
100
AcDbLine
  8
Mode2
 62
256
370
-1
 48
1.0
  6
BYLAYER
 10
215.0272412333113152
 20
47.6768360805667086
 30
0.0
 11
220.0152313882937278
 21
45.8221467835028307
 31
0.0
  0
LINE
  5
FF
100
AcDbEntity
100
AcDbLine
  8
Mode2
 62
256
370
-1
 48
1.0
  6
BYLAYER
 10
220.0152313882937278
 20
45.8221467835028307
 30
0.0
 11
225.0496789847927062
 21
44.8860205296060712
 31
0.0
  0
LINE
  5
100
100
AcDbEntity
100
AcDbLine
  8
Mode2
 62
256
370
-1
 48
1.0
  6
BYLAYER
 10
225.0496789847927062
 20
44.8860205296060712
 30
0.0
 11
230.0278326670707543
 21
43.3042029053602207
 31
0.0
  0
LINE
  5
101
100
AcDbEntity
100
AcDbLine
  8
Mode2
 62
256
370
-1
 48
1.0
  6
BYLAYER
 10
230.0278326670707543
 20
43.3042029053602207
 30
0.0
 11
234.9173119679750528
 21
42.7231684027215479
 31
0.0
  0
LINE
  5
102
100
AcDbEntity
100
AcDbLine
  8
Mode2
 62
256
370
-1
 48
1.0
  6
BYLAYER
 10
234.9173119679750528
 20
42.7231684027215479
 30
0.0
 11
240.0261379407964455
 21
41.2056953414874698
 31
0.0
  0
LINE
  5
103
100
AcDbEntity
100
AcDbLine
  8
Mode2
 62
256
370
-1
 48
1.0
  6
BYLAYER
 10
240.0261379407964455
 20
41.2056953414874698
 30
0.0
 11
244.9476907939596799
 21
39.381598344501775
 31
0.0
  0
LINE
  5
104
100
AcDbEntity
100
AcDbLine
  8
Mode2
 62
256
370
-1
 48
1.0
  6
BYLAYER
 10
244.9476907939596799
 20
39.381598344501775
 30
0.0
 11
250.0059343314065927
 21
37.9990117775996197
 31
0.0
  0
LINE
  5
105
100
AcDbEntity
100
AcDbLine
  8
Mode2
 62
256
370
-1
 48
1.0
  6
BYLAYER
 10
250.0059343314065927
 20
37.9990117775996197
 30
0.0
 11
255.084890139679743
 21
36.7659974271375987
 31
0.0
  0
LINE
  5
106
100
AcDbEntity
100
AcDbLine
  8
Mode2
 62
256
370
-1
 48
1.0
  6
BYLAYER
 10
255.084890139679743
 20
36.7659974271375987
 30
0.0
 11
260.0220056052165774
 21
34.7190049513211818
 31
0.0
  0
LINE
  5
107
100
AcDbEntity
100
AcDbLine
  8
Mode2
 62
256
370
-1
 48
1.0
  6
BYLAYER
 10
260.0220056052165774
 20
34.7190049513211818
 30
0.0
 11
264.9273411652335426
 21
33.7985572111082178
 31
0.0
  0
LINE
  5
108
100
AcDbEntity
100
AcDbLine
  8
Mode2
 62
256
370
-1
 48
1.0
  6
BYLAYER
 10
264.9273411652335426
 20
33.7985572111082178
 30
0.0
 11
270.0930672251871556
 21
31.6212786147902243
 31
0.0
  0
LINE
  5
109
100
AcDbEntity
100
AcDbLine
  8
Mode2
 62
256
370
-1
 48
1.0
  6
BYLAYER
 10
270.0930672251871556
 20
31.6212786147902243
 30
0.0
 11
274.982183206821162
 21
30.1721309334160601
 31
0.0
  0
LINE
  5
10A
100
AcDbEntity
100
AcDbLine
  8
Mode2
 62
256
370
-1
 48
1.0
  6
BYLAYER
 10
274.982183206821162
 20
30.1721309334160601
 30
0.0
 11
279.9762358802535118
 21
28.3118040283442767
 31
0.0
  0
LINE
  5
10B
100
AcDbEntity
100
AcDbLine
  8
Mode2
 62
256
370
-1
 48
1.0
  6
BYLAYER
 10
279.9762358802535118
 20
28.3118040283442767
 30
0.0
 11
285.0685472499522461
 21
26.2958100875632681
 31
0.0
  0
LINE
  5
10C
100
AcDbEntity
100
AcDbLine
  8
Mode3
 62
256
370
-1
 48
1.0
  6
BYLAYER
 10
-0.0292259610508654
 20
71.1802009076408524
 30
0.0
 11
5.0334660999554783
 21
70.3718500182086188
 31
0.0
  0
LINE
  5
10D
100
AcDbEntity
100
AcDbLine
  8
Mode3
 62
256
370
-1
 48
1.0
  6
BYLAYER
 10
5.0334660999554783
 20
70.3718500182086188
 30
0.0
 11
9.8792252300223424
 21
70.3846064124686279
 31
0.0
  0
LINE
  5
10E
100
AcDbEntity
100
AcDbLine
  8
Mode3
 62
256
370
-1
 48
1.0
  6
BYLAYER
 10
9.8792252300223424
 20
70.3846064124686279
 30
0.0
 11
14.9999999999999982
 21
69.1999999999999886
 31
0.0
  0
LINE
  5
10F
100
AcDbEntity
100
AcDbLine
  8
Mode3
 62
256
370
-1
 48
1.0
  6
BYLAYER
 10
14.9999999999999982
 20
69.1999999999999886
 30
0.0
 11
20.0022714902154597
 21
68.4366573822121893
 31
0.0
  0
LINE
  5
110
100
AcDbEntity
100
AcDbLine
  8
Mode3
 62
256
370
-1
 48
1.0
  6
BYLAYER
 10
20.0022714902154597
 20
68.4366573822121893
 30
0.0
 11
24.9999999999999964
 21
67.3999999999999915
 31
0.0
  0
LINE
  5
111
100
AcDbEntity
100
AcDbLine
  8
Mode3
 62
256
370
-1
 48
1.0
  6
BYLAYER
 10
24.9999999999999964
 20
67.3999999999999915
 30
0.0
 11
30.022808169366364
 21
65.7165960895594168
 31
0.0
  0
LINE
  5
112
100
AcDbEntity
100
AcDbLine
  8
Mode3
 62
256
370
-1
 48
1.0
  6
BYLAYER
 10
30.022808169366364
 20
65.7165960895594168
 30
0.0
 11
35.0263454675519981
 21
65.1465386299185951
 31
0.0
  0
LINE
  5
113
100
AcDbEntity
100
AcDbLine
  8
Mode3
 62
256
370
-1
 48
1.0
  6
BYLAYER
 10
35.0263454675519981
 20
65.1465386299185951
 30
0.0
 11
40.0156509091207369
 21
63.5562266863031624
 31
0.0
  0
LINE
  5
114
100
AcDbEntity
100
AcDbLine
  8
Mode3
 62
256
370
-1
 48
1.0
  6
BYLAYER
 10
40.0156509091207369
 20
63.5562266863031624
 30
0.0
 11
45.101459281336524
 21
62.472202136558451
 31
0.0
  0
LINE
  5
115
100
AcDbEntity
100
AcDbLine
  8
Mode3
 62
256
370
-1
 48
1.0
  6
BYLAYER
 10
45.101459281336524
 20
62.472202136558451
 30
0.0
 11
50.0354875444027556
 21
62.473947381335023
 31
0.0
  0
LINE
  5
116
100
AcDbEntity
100
AcDbLine
  8
Mode3
 62
256
370
-1
 48
1.0
  6
BYLAYER
 10
50.0354875444027556
 20
62.473947381335023
 30
0.0
 11
55.0837456912728811
 21
63.4952815251953879
 31
0.0
  0
LINE
  5
117
100
AcDbEntity
100
AcDbLine
  8
Mode3
 62
256
370
-1
 48
1.0
  6
BYLAYER
 10
55.0837456912728811
 20
63.4952815251953879
 30
0.0
 11
60.0645710977340528
 21
64.5028980864530013
 31
0.0
  0
LINE
  5
118
100
AcDbEntity
100
AcDbLine
  8
Mode3
 62
256
370
-1
 48
1.0
  6
BYLAYER
 10
60.0645710977340528
 20
64.5028980864530013
 30
0.0
 11
65.0367867663760109
 21
65.6360220653612032
 31
0.0
  0
LINE
  5
119
100
AcDbEntity
100
AcDbLine
  8
Mode3
 62
256
370
-1
 48
1.0
  6
BYLAYER
 10
65.0367867663760109
 20
65.6360220653612032
 30
0.0
 11
70.0679918646441422
 21
64.3883805467559398
 31
0.0
  0
LINE
  5
11A
100
AcDbEntity
100
AcDbLine
  8
Mode3
 62
256
370
-1
 48
1.0
  6
BYLAYER
 10
70.0679918646441422
 20
64.3883805467559398
 30
0.0
 11
75.0302988056894407
 21
61.3586901515547893
 31
0.0
  0
LINE
  5
11B
100
AcDbEntity
100
AcDbLine
  8
Mode3
 62
256
370
-1
 48
1.0
  6
BYLAYER
 10
75.0302988056894407
 20
61.3586901515547893
 30
0.0
 11
80.0950878846918641
 21
61.0757601809724804
 31
0.0
  0
LINE
  5
11C
100
AcDbEntity
100
AcDbLine
  8
Mode3
 62
256
370
-1
 48
1.0
  6
BYLAYER
 10
80.0950878846918641
 20
61.0757601809724804
 30
0.0
 11
84.9875789796536338
 21
58.1538261805151109
 31
0.0
  0
LINE
  5
11D
100
AcDbEntity
100
AcDbLine
  8
Mode3
 62
256
370
-1
 48
1.0
  6
BYLAYER
 10
84.9875789796536338
 20
58.1538261805151109
 30
0.0
 11
90.0958033503609812
 21
58.5716666812668549
 31
0.0
  0
LINE
  5
11E
100
AcDbEntity
100
AcDbLine
  8
Mode3
 62
256
370
-1
 48
1.0
  6
BYLAYER
 10
90.0958033503609812
 20
58.5716666812668549
 30
0.0
 11
94.9952360041587411
 21
55.0085671615679246
 31
0.0
  0
LINE
  5
11F
100
AcDbEntity
100
AcDbLine
  8
Mode3
 62
256
370
-1
 48
1.0
  6
BYLAYER
 10
94.9952360041587411
 20
55.0085671615679246
 30
0.0
 11
100.0458078085432305
 21
51.4288252489223723
 31
0.0
  0
LINE
  5
120
100
AcDbEntity
100
AcDbLine
  8
Mode3
 62
256
370
-1
 48
1.0
  6
BYLAYER
 10
100.0458078085432305
 20
51.4288252489223723
 30
0.0
 11
105.0490293572050859
 21
51.3701019913089709
 31
0.0
  0
LINE
  5
121
100
AcDbEntity
100
AcDbLine
  8
Mode3
 62
256
370
-1
 48
1.0
  6
BYLAYER
 10
105.0490293572050859
 20
51.3701019913089709
 30
0.0
 11
109.9534930603346652
 21
51.1545468050328509
 31
0.0
  0
LINE
  5
122
100
AcDbEntity
100
AcDbLine
  8
Mode3
 62
256
370
-1
 48
1.0
  6
BYLAYER
 10
109.9534930603346652
 20
51.1545468050328509
 30
0.0
 11
115.0268798396133718
 21
51.4612543921659764
 31
0.0
  0
LINE
  5
123
100
AcDbEntity
100
AcDbLine
  8
Mode3
 62
256
370
-1
 48
1.0
  6
BYLAYER
 10
115.0268798396133718
 20
51.4612543921659764
 30
0.0
 11
119.994901258303571
 21
51.4466421665275107
 31
0.0
  0
LINE
  5
124
100
AcDbEntity
100
AcDbLine
  8
Mode3
 62
256
370
-1
 48
1.0
  6
BYLAYER
 10
119.994901258303571
 20
51.4466421665275107
 30
0.0
 11
124.9981228069654122
 21
51.0802090390198771
 31
0.0
  0
LINE
  5
125
100
AcDbEntity
100
AcDbLine
  8
Mode3
 62
256
370
-1
 48
1.0
  6
BYLAYER
 10
124.9981228069654122
 20
51.0802090390198771
 30
0.0
 11
130.0333119607916501
 21
50.5747993516666412
 31
0.0
  0
LINE
  5
126
100
AcDbEntity
100
AcDbLine
  8
Mode3
 62
256
370
-1
 48
1.0
  6
BYLAYER
 10
130.0333119607916501
 20
50.5747993516666412
 30
0.0
 11
135.0055276294336011
 21
50.1355232854927877
 31
0.0
  0
LINE
  5
127
100
AcDbEntity
100
AcDbLine
  8
Mode3
 62
256
370
-1
 48
1.0
  6
BYLAYER
 10
135.0055276294336011
 20
50.1355232854927877
 30
0.0
 11
140.010045787623568
 21
49.3337300196212141
 31
0.0
  0
LINE
  5
128
100
AcDbEntity
100
AcDbLine
  8
Mode3
 62
256
370
-1
 48
1.0
  6
BYLAYER
 10
140.010045787623568
 20
49.3337300196212141
 30
0.0
 11
145.0710036255833586
 21
49.4141076133255552
 31
0.0
  0
LINE
  5
129
100
AcDbEntity
100
AcDbLine
  8
Mode3
 62
256
370
-1
 48
1.0
  6
BYLAYER
 10
145.0710036255833586
 20
49.4141076133255552
 30
0.0
 11
150.0015510105712622
 21
48.9100162952947883
 31
0.0
  0
LINE
  5
12A
100
AcDbEntity
100
AcDbLine
  8
Mode3
 62
256
370
-1
 48
1.0
  6
BYLAYER
 10
150.0015510105712622
 20
48.9100162952947883
 30
0.0
 11
154.9577939531423851
 21
48.4754641889556126
 31
0.0
  0
LINE
  5
12B
100
AcDbEntity
100
AcDbLine
  8
Mode3
 62
256
370
-1
 48
1.0
  6
BYLAYER
 10
154.9577939531423851
 20
48.4754641889556126
 30
0.0
 11
159.9337196120886802
 21
48.064753520589548
 31
0.0
  0
LINE
  5
12C
100
AcDbEntity
100
AcDbLine
  8
Mode3
 62
256
370
-1
 48
1.0
  6
BYLAYER
 10
159.9337196120886802
 20
48.064753520589548
 30
0.0
 11
165.0858241932197359
 21
47.9017377574547396
 31
0.0
  0
LINE
  5
12D
100
AcDbEntity
100
AcDbLine
  8
Mode3
 62
256
370
-1
 48
1.0
  6
BYLAYER
 10
165.0858241932197359
 20
47.9017377574547396
 30
0.0
 11
169.9708976794705961
 21
47.2292233517307167
 31
0.0
  0
LINE
  5
12E
100
AcDbEntity
100
AcDbLine
  8
Mode3
 62
256
370
-1
 48
1.0
  6
BYLAYER
 10
169.9708976794705961
 20
47.2292233517307167
 30
0.0
 11
175.0445871372685076
 21
46.7359479877781396
 31
0.0
  0
LINE
  5
12F
100
AcDbEntity
100
AcDbLine
  8
Mode3
 62
256
370
-1
 48
1.0
  6
BYLAYER
 10
175.0445871372685076
 20
46.7359479877781396
 30
0.0
 11
180.0183757849407584
 21
46.2393832194100014
 31
0.0
  0
LINE
  5
130
100
AcDbEntity
100
AcDbLine
  8
Mode3
 62
256
370
-1
 48
1.0
  6
BYLAYER
 10
180.0183757849407584
 20
46.2393832194100014
 30
0.0
 11
185.0011825193336392
 21
45.9169664358868346
 31
0.0
  0
LINE
  5
131
100
AcDbEntity
100
AcDbLine
  8
Mode3
 62
256
370
-1
 48
1.0
  6
BYLAYER
 10
185.0011825193336392
 20
45.9169664358868346
 30
0.0
 11
190.0712572343851434
 21
45.4761452955571031
 31
0.0
  0
LINE
  5
132
100
AcDbEntity
100
AcDbLine
  8
Mode3
 62
256
370
-1
 48
1.0
  6
BYLAYER
 10
190.0712572343851434
 20
45.4761452955571031
 30
0.0
 11
195.08342350964665
 21
44.4299286060096605
 31
0.0
  0
LINE
  5
133
100
AcDbEntity
100
AcDbLine
  8
Mode3
 62
256
370
-1
 48
1.0
  6
BYLAYER
 10
195.08342350964665
 20
44.4299286060096605
 30
0.0
 11
199.9950289466639504
 21
44.0047552041935504
 31
0.0
  0
LINE
  5
134
100
AcDbEntity
100
AcDbLine
  8
Mode3
 62
256
370
-1
 48
1.0
  6
BYLAYER
 10
199.9950289466639504
 20
44.0047552041935504
 30
0.0
 11
205.1196693126896946
 21
43.1618650537138322
 31
0.0
  0
LINE
  5
135
100
AcDbEntity
100
AcDbLine
  8
Mode3
 62
256
370
-1
 48
1.0
  6
BYLAYER
 10
205.1196693126896946
 20
43.1618650537138322
 30
0.0
 11
210.0733033766692586
 21
42.3843064847709314
 31
0.0
  0
LINE
  5
136
100
AcDbEntity
100
AcDbLine
  8
Mode3
 62
256
370
-1
 48
1.0
  6
BYLAYER
 10
210.0733033766692586
 20
42.3843064847709314
 30
0.0
 11
214.9716681545520771
 21
41.6142530091432903
 31
0.0
  0
LINE
  5
137
100
AcDbEntity
100
AcDbLine
  8
Mode3
 62
256
370
-1
 48
1.0
  6
BYLAYER
 10
214.9716681545520771
 20
41.6142530091432903
 30
0.0
 11
219.981699991644831
 21
40.9799038925112455
 31
0.0
  0
LINE
  5
138
100
AcDbEntity
100
AcDbLine
  8
Mode3
 62
256
370
-1
 48
1.0
  6
BYLAYER
 10
219.981699991644831
 20
40.9799038925112455
 30
0.0
 11
225.0254852676141866
 21
40.2906352513046428
 31
0.0
  0
LINE
  5
139
100
AcDbEntity
100
AcDbLine
  8
Mode3
 62
256
370
-1
 48
1.0
  6
BYLAYER
 10
225.0254852676141866
 20
40.2906352513046428
 30
0.0
 11
229.9928595299062124
 21
39.2516877180729651
 31
0.0
  0
LINE
  5
13A
100
AcDbEntity
100
AcDbLine
  8
Mode3
 62
256
370
-1
 48
1.0
  6
BYLAYER
 10
229.9928595299062124
 20
39.2516877180729651
 30
0.0
 11
234.9812186135544891
 21
38.6623692918285116
 31
0.0
  0
LINE
  5
13B
100
AcDbEntity
100
AcDbLine
  8
Mode3
 62
256
370
-1
 48
1.0
  6
BYLAYER
 10
234.9812186135544891
 20
38.6623692918285116
 30
0.0
 11
240.1140196854428268
 21
37.8069914448731197
 31
0.0
  0
LINE
  5
13C
100
AcDbEntity
100
AcDbLine
  8
Mode3
 62
256
370
-1
 48
1.0
  6
BYLAYER
 10
240.1140196854428268
 20
37.8069914448731197
 30
0.0
 11
245.1276037586109737
 21
36.5828368118707417
 31
0.0
  0
LINE
  5
13D
100
AcDbEntity
100
AcDbLine
  8
Mode3
 62
256
370
-1
 48
1.0
  6
BYLAYER
 10
245.1276037586109737
 20
36.5828368118707417
 30
0.0
 11
250.0995062365456647
 21
36.0836891221568266
 31
0.0
  0
LINE
  5
13E
100
AcDbEntity
100
AcDbLine
  8
Mode3
 62
256
370
-1
 48
1.0
  6
BYLAYER
 10
250.0995062365456647
 20
36.0836891221568266
 30
0.0
 11
255.0994460581401029
 21
34.7182914937149789
 31
0.0
  0
LINE
  5
13F
100
AcDbEntity
100
AcDbLine
  8
Mode3
 62
256
370
-1
 48
1.0
  6
BYLAYER
 10
255.0994460581401029
 20
34.7182914937149789
 30
0.0
 11
259.9871447494979861
 21
33.4683552107621836
 31
0.0
  0
LINE
  5
140
100
AcDbEntity
100
AcDbLine
  8
Mode3
 62
256
370
-1
 48
1.0
  6
BYLAYER
 10
259.9871447494979861
 20
33.4683552107621836
 30
0.0
 11
264.9520170445583176
 21
32.8409274310541122
 31
0.0
  0
LINE
  5
141
100
AcDbEntity
100
AcDbLine
  8
Mode3
 62
256
370
-1
 48
1.0
  6
BYLAYER
 10
264.9520170445583176
 20
32.8409274310541122
 30
0.0
 11
270.0340399850921926
 21
31.1602495287006178
 31
0.0
  0
LINE
  5
142
100
AcDbEntity
100
AcDbLine
  8
Mode3
 62
256
370
-1
 48
1.0
  6
BYLAYER
 10
270.0340399850921926
 20
31.1602495287006178
 30
0.0
 11
275.0400932997324048
 21
30.1633243586170892
 31
0.0
  0
LINE
  5
143
100
AcDbEntity
100
AcDbLine
  8
Mode3
 62
256
370
-1
 48
1.0
  6
BYLAYER
 10
275.0400932997324048
 20
30.1633243586170892
 30
0.0
 11
280.0213722480965544
 21
28.665604316141458
 31
0.0
  0
LINE
  5
144
100
AcDbEntity
100
AcDbLine
  8
Mode3
 62
256
370
-1
 48
1.0
  6
BYLAYER
 10
280.0213722480965544
 20
28.665604316141458
 30
0.0
 11
284.9945274888602285
 21
26.8043495257119488
 31
0.0
  0
ENDSEC
  0
SECTION
  2
OBJECTS
  0
DICTIONARY
  5
C
100
AcDbDictionary
280
0
281
1
  3
ACAD_GROUP
350
D
  3
ACAD_LAYOUT
350
1A
  3
ACAD_MLINESTYLE
350
17
  3
ACAD_PLOTSETTINGS
350
19
  3
ACAD_PLOTSTYLENAME
350
E
  3
AcDbVariableDictionary
350
145
  3
QCAD_OBJECTS
350
146
  0
DICTIONARY
  5
D
100
AcDbDictionary
280
0
281
1
  0
ACDBDICTIONARYWDFLT
  5
E
100
AcDbDictionary
281
1
  3
Normal
350
F
100
AcDbDictionaryWithDefault
340
F
  0
ACDBPLACEHOLDER
  5
F
  0
DICTIONARY
  5
17
100
AcDbDictionary
280
0
281
1
  3
Standard
350
18
  0
MLINESTYLE
  5
18
100
AcDbMlineStyle
  2
STANDARD
 70
0
  3

 62
256
 51
90.0
 52
90.0
 71
2
 49
0.5
 62
256
  6
BYLAYER
 49
-0.5
 62
256
  6
BYLAYER
  0
DICTIONARY
  5
19
100
AcDbDictionary
280
0
281
1
  0
DICTIONARY
  5
1A
100
AcDbDictionary
281
1
  3
Layout1
350
1E
  3
Layout2
350
26
  3
Model
350
22
  0
LAYOUT
  5
1E
100
AcDbPlotSettings
  1

  2
none_device
  4

  6

 40
0.0
 41
0.0
 42
0.0
 43
0.0
 44
0.0
 45
0.0
 46
0.0
 47
0.0
 48
0.0
 49
0.0
140
0.0
141
0.0
142
1.0
143
1.0
 70
688
 72
0
 73
0
 74
5
  7

 75
16
147
1.0
148
0.0
149
0.0
100
AcDbLayout
  1
Layout1
 70
1
 71
1
 10
0.0
 20
0.0
 11
420.0
 21
297.0
 12
0.0
 22
0.0
 32
0.0
 14
100000000000000000000.0
 24
100000000000000000000.0
 34
100000000000000000000.0
 15
-100000000000000000000.0
 25
-100000000000000000000.0
 35
-100000000000000000000.0
146
0.0
 13
0.0
 23
0.0
 33
0.0
 16
1.0
 26
0.0
 36
0.0
 17
0.0
 27
1.0
 37
0.0
 76
0
330
1B
  0
LAYOUT
  5
22
100
AcDbPlotSettings
  1

  2
none_device
  4

  6

 40
0.0
 41
0.0
 42
0.0
 43
0.0
 44
0.0
 45
0.0
 46
0.0
 47
0.0
 48
0.0
 49
0.0
140
0.0
141
0.0
142
1.0
143
1.0
 70
1712
 72
0
 73
0
 74
0
  7

 75
0
147
1.0
148
0.0
149
0.0
100
AcDbLayout
  1
Model
 70
1
 71
0
 10
0.0
 20
0.0
 11
12.0
 21
9.0
 12
0.0
 22
0.0
 32
0.0
 14
0.0
 24
0.0
 34
0.0
 15
0.0
 25
0.0
 35
0.0
146
0.0
 13
0.0
 23
0.0
 33
0.0
 16
1.0
 26
0.0
 36
0.0
 17
0.0
 27
1.0
 37
0.0
 76
0
330
1F
  0
LAYOUT
  5
26
100
AcDbPlotSettings
  1

  2
none_device
  4

  6

 40
0.0
 41
0.0
 42
0.0
 43
0.0
 44
0.0
 45
0.0
 46
0.0
 47
0.0
 48
0.0
 49
0.0
140
0.0
141
0.0
142
1.0
143
1.0
 70
688
 72
0
 73
0
 74
5
  7

 75
16
147
1.0
148
0.0
149
0.0
100
AcDbLayout
  1
Layout2
 70
1
 71
2
 10
0.0
 20
0.0
 11
12.0
 21
9.0
 12
0.0
 22
0.0
 32
0.0
 14
0.0
 24
0.0
 34
0.0
 15
0.0
 25
0.0
 35
0.0
146
0.0
 13
0.0
 23
0.0
 33
0.0
 16
1.0
 26
0.0
 36
0.0
 17
0.0
 27
1.0
 37
0.0
 76
0
330
23
  0
DICTIONARY
  5
145
100
AcDbDictionary
281
1
  3
DIMASSOC
350
148
  3
HIDETEXT
350
147
  0
DICTIONARYVAR
  5
147
100
DictionaryVariables
280
0
  1
2
  0
DICTIONARYVAR
  5
148
100
DictionaryVariables
280
0
  1
1
  0
DICTIONARY
  5
146
100
AcDbDictionary
281
1
  3
Grid/DisplayGrid00
350
149
  3
Grid/DisplayGrid01
350
14A
  3
Grid/DisplayGrid02
350
14B
  3
Grid/DisplayGrid03
350
14C
  3
Grid/GridSpacingX00
350
14D
  3
Grid/GridSpacingX01
350
14E
  3
Grid/GridSpacingX02
350
14F
  3
Grid/GridSpacingX03
350
150
  3
Grid/GridSpacingY00
350
151
  3
Grid/GridSpacingY01
350
152
  3
Grid/GridSpacingY02
350
153
  3
Grid/GridSpacingY03
350
154
  3
Grid/IsometricGrid00
350
155
  3
Grid/IsometricGrid01
350
156
  3
Grid/IsometricGrid02
350
157
  3
Grid/IsometricGrid03
350
158
  3
Grid/IsometricProjection00
350
159
  3
Grid/IsometricProjection01
350
15A
  3
Grid/IsometricProjection02
350
15B
  3
Grid/IsometricProjection03
350
15C
  3
Grid/MetaGridSpacingX00
350
15D
  3
Grid/MetaGridSpacingX01
350
15E
  3
Grid/MetaGridSpacingX02
350
15F
  3
Grid/MetaGridSpacingX03
350
160
  3
Grid/MetaGridSpacingY00
350
161
  3
Grid/MetaGridSpacingY01
350
162
  3
Grid/MetaGridSpacingY02
350
163
  3
Grid/MetaGridSpacingY03
350
164
  3
MultiPageSettings/Columns
350
165
  3
MultiPageSettings/GlueMarginsBottom
350
166
  3
MultiPageSettings/GlueMarginsLeft
350
167
  3
MultiPageSettings/GlueMarginsRight
350
168
  3
MultiPageSettings/GlueMarginsTop
350
169
  3
MultiPageSettings/PrintCropMarks
350
16A
  3
MultiPageSettings/Rows
350
16B
  3
PageSettings/OffsetX
350
16C
  3
PageSettings/OffsetY
350
16D
  3
PageSettings/PageOrientation
350
16E
  3
PageSettings/PaperHeight
350
16F
  3
PageSettings/PaperWidth
350
170
  3
PageSettings/Scale
350
171
  3
PageSettings/ShowPaperBorders
350
172
  3
UnitSettings/PaperUnit
350
173
  0
XRECORD
  5
149
330
146
100
AcDbXrecord
280
1
290
1
  0
XRECORD
  5
14A
330
146
100
AcDbXrecord
280
1
290
1
  0
XRECORD
  5
14B
330
146
100
AcDbXrecord
280
1
290
1
  0
XRECORD
  5
14C
330
146
100
AcDbXrecord
280
1
290
1
  0
XRECORD
  5
14D
330
146
100
AcDbXrecord
280
1
1000
auto
  0
XRECORD
  5
14E
330
146
100
AcDbXrecord
280
1
1000
auto
  0
XRECORD
  5
14F
330
146
100
AcDbXrecord
280
1
1000
auto
  0
XRECORD
  5
150
330
146
100
AcDbXrecord
280
1
1000
auto
  0
XRECORD
  5
151
330
146
100
AcDbXrecord
280
1
1000
auto
  0
XRECORD
  5
152
330
146
100
AcDbXrecord
280
1
1000
auto
  0
XRECORD
  5
153
330
146
100
AcDbXrecord
280
1
1000
auto
  0
XRECORD
  5
154
330
146
100
AcDbXrecord
280
1
1000
auto
  0
XRECORD
  5
155
330
146
100
AcDbXrecord
280
1
290
0
  0
XRECORD
  5
156
330
146
100
AcDbXrecord
280
1
290
0
  0
XRECORD
  5
157
330
146
100
AcDbXrecord
280
1
290
0
  0
XRECORD
  5
158
330
146
100
AcDbXrecord
280
1
290
0
  0
XRECORD
  5
159
330
146
100
AcDbXrecord
280
1
 90
0
  0
XRECORD
  5
15A
330
146
100
AcDbXrecord
280
1
 90
0
  0
XRECORD
  5
15B
330
146
100
AcDbXrecord
280
1
 90
0
  0
XRECORD
  5
15C
330
146
100
AcDbXrecord
280
1
 90
0
  0
XRECORD
  5
15D
330
146
100
AcDbXrecord
280
1
1000
auto
  0
XRECORD
  5
15E
330
146
100
AcDbXrecord
280
1
1000
auto
  0
XRECORD
  5
15F
330
146
100
AcDbXrecord
280
1
1000
auto
  0
XRECORD
  5
160
330
146
100
AcDbXrecord
280
1
1000
auto
  0
XRECORD
  5
161
330
146
100
AcDbXrecord
280
1
1000
auto
  0
XRECORD
  5
162
330
146
100
AcDbXrecord
280
1
1000
auto
  0
XRECORD
  5
163
330
146
100
AcDbXrecord
280
1
1000
auto
  0
XRECORD
  5
164
330
146
100
AcDbXrecord
280
1
1000
auto
  0
XRECORD
  5
165
330
146
100
AcDbXrecord
280
1
 90
1
  0
XRECORD
  5
166
330
146
100
AcDbXrecord
280
1
 40
0.5
  0
XRECORD
  5
167
330
146
100
AcDbXrecord
280
1
 40
0.5
  0
XRECORD
  5
168
330
146
100
AcDbXrecord
280
1
 40
0.5
  0
XRECORD
  5
169
330
146
100
AcDbXrecord
280
1
 40
0.5
  0
XRECORD
  5
16A
330
146
100
AcDbXrecord
280
1
290
0
  0
XRECORD
  5
16B
330
146
100
AcDbXrecord
280
1
 90
1
  0
XRECORD
  5
16C
330
146
100
AcDbXrecord
280
1
 40
0.0
  0
XRECORD
  5
16D
330
146
100
AcDbXrecord
280
1
 40
0.0
  0
XRECORD
  5
16E
330
146
100
AcDbXrecord
280
1
1000
Landscape
  0
XRECORD
  5
16F
330
146
100
AcDbXrecord
280
1
 40
279.3999999999999773
  0
XRECORD
  5
170
330
146
100
AcDbXrecord
280
1
 40
215.9000000000000057
  0
XRECORD
  5
171
330
146
100
AcDbXrecord
280
1
1000
1" = 1"
  0
XRECORD
  5
172
330
146
100
AcDbXrecord
280
1
290
1
  0
XRECORD
  5
173
330
146
100
AcDbXrecord
280
1
 90
4
  0
IMAGEDEF
  5
5F
100
AcDbRasterImageDef
 90
0
  1
/home/networkuser/Development/KStars-OptimalExposure/Analysis/ReadNoiseGraphs/QHY268M.png
 10
317.0
 20
111.0
 11
1.0
 21
1.0
280
1
281
0
  0
ENDSEC
  0
EOF
